<svg xmlns="http://www.w3.org/2000/svg" width="68" height="84.079" viewBox="0 0 68 84.079">
  <g id="Group_258" data-name="Group 258" transform="translate(-544 -394)">
    <path id="Path_200" data-name="Path 200" d="M574.476,410.866l-3.167-1.057.467-1.635a9.421,9.421,0,0,0-5.573-11.365l-1.288-.514-3.795,10.119-3.166-1.055L562.072,394h-3.786a14.286,14.286,0,0,0-9.144,25.261l3,2.5v3.39L550.78,467.23v1.356a9.493,9.493,0,1,0,18.985,0v-1.4l-1.356-42v-3.709Zm-8.045-10.891a6.713,6.713,0,0,1,2.738,7.455l-.434,1.521-5.039-1.678Zm.623,67.255v1.356a6.781,6.781,0,0,1-13.562,0v-1.312l1.357-42.082v-4.7l-3.973-3.31a11.574,11.574,0,0,1,7.327-20.464l-3.747,10.339,16.025,5.341-4.782,8.368v4.474Zm0,0" fill="#f70b0b"/>
    <path id="Path_201" data-name="Path 201" d="M582.354,592.093a4.069,4.069,0,1,0,4.067,4.069,4.074,4.074,0,0,0-4.067-4.069Zm0,5.425a1.356,1.356,0,1,1,1.356-1.356,1.357,1.357,0,0,1-1.356,1.356Zm0,0" transform="translate(-22.08 -127.576)" fill="#f70b0b"/>
    <path id="Path_202" data-name="Path 202" d="M571.871,438.7l-2.215,6.641,10.71,3.571,2.214-6.641Zm6.78,6.782-5.564-1.855.5-1.5,5.564,1.854Zm0,0" transform="translate(-16.523 -28.79)" fill="#f70b0b"/>
    <path id="Path_203" data-name="Path 203" d="M582.354,477.808a4.074,4.074,0,0,0-4.069,4.069v29.834a4.068,4.068,0,1,0,8.136,0V481.877a4.073,4.073,0,0,0-4.067-4.069Zm1.356,33.9a1.356,1.356,0,1,1-2.713,0V481.877a1.356,1.356,0,0,1,2.713,0Zm0,0" transform="translate(-22.08 -53.974)" fill="#f70b0b"/>
    <path id="Path_204" data-name="Path 204" d="M672.808,421.122l7.534-13.562L672.808,394H657.651l-7.534,13.56,7.534,13.562Zm-13.562-24.409h11.965l6.027,10.847-6.027,10.849H659.246l-6.027-10.849Zm0,0" transform="translate(-68.342)" fill="#f70b0b"/>
    <path id="Path_205" data-name="Path 205" d="M677.851,425.512a8.137,8.137,0,1,0-8.136-8.138,8.146,8.146,0,0,0,8.136,8.138Zm0-13.562a5.425,5.425,0,1,1-5.424,5.424,5.43,5.43,0,0,1,5.424-5.424Zm0,0" transform="translate(-80.963 -9.814)" fill="#f70b0b"/>
    <path id="Path_206" data-name="Path 206" d="M650.668,498.99h6.78v37.971h16.273V498.99h6.78V485.429H650.668Zm21.7-10.849h5.424v8.138h-5.424Zm-10.849,0h8.137v8.138h-8.137ZM660.16,498.99h10.849v1.6l-10.849,2.169Zm0,6.537,10.849-2.17v4.014L660.16,509.54Zm0,6.78,10.849-2.169v4.013l-10.849,2.171Zm0,6.78,10.849-2.169v4.013L660.16,523.1Zm0,6.78,10.849-2.169v4.015l-10.849,2.169Zm0,6.78,10.849-2.169v3.77H660.16Zm-6.78-44.507H658.8v8.138h-5.424Zm0,0" transform="translate(-68.697 -58.882)" fill="#f70b0b"/>
  </g>
</svg>
