<svg xmlns="http://www.w3.org/2000/svg" width="81.395" height="80.983" viewBox="0 0 81.395 80.983">
  <g id="Group_620" data-name="Group 620" transform="translate(-615.097 -2324.017)">
    <g id="Group_257" data-name="Group 257" transform="translate(615.097 2322.722)">
      <path id="Path_194" data-name="Path 194" d="M75.071,57.241a1.9,1.9,0,0,0,1.9-1.9v-3.3h2.5A1.924,1.924,0,0,0,81.4,50.119V45.757a1.925,1.925,0,0,0-1.922-1.922H76.038V30.729a4.254,4.254,0,0,0,1.029.128,4.359,4.359,0,0,0,1.133-.151,4.32,4.32,0,0,0,1.037-7.91L43.014,1.885a4.844,4.844,0,0,0-4.629,0L2.159,22.8a4.32,4.32,0,0,0,3.2,7.932V43.834H1.927A1.925,1.925,0,0,0,0,45.757v4.362a1.925,1.925,0,0,0,1.922,1.922h2.5v3.3a1.9,1.9,0,0,0,1.9,1.9H7.76v11.63H6.325a1.9,1.9,0,0,0-1.9,1.9v3.3h-2.5A1.925,1.925,0,0,0,0,75.994v4.362a1.925,1.925,0,0,0,1.922,1.922H38.211a1.192,1.192,0,1,0,0-2.385H2.389V76.456H79.011v3.438h-35.3a1.192,1.192,0,1,0,0,2.385H79.473A1.924,1.924,0,0,0,81.4,80.356V75.994a1.925,1.925,0,0,0-1.922-1.922h-2.5v-3.3a1.906,1.906,0,0,0-1.9-1.9H73.636V57.241h1.435ZM5.287,28.213a1.941,1.941,0,0,1-2.643-.708h0a1.937,1.937,0,0,1,.709-2.642L39.581,3.946A2.292,2.292,0,0,1,40.7,3.68a2.262,2.262,0,0,1,1.121.268L78.044,24.862a1.934,1.934,0,0,1-1.931,3.352L41.294,8.111a1.192,1.192,0,0,0-1.192,0Zm-2.9,18.006H38.211a1.192,1.192,0,0,0,0-2.385H7.747V29.546L40.7,10.52,73.653,29.546V43.834H43.514a1.192,1.192,0,0,0,0,2.385h35.5v3.438H2.389Zm30.917,8.638V52.041H48.09v2.816Zm11.445,2.385v11.63H36.645V57.241ZM6.81,54.857V52.041H21.589v2.816Zm11.445,2.385v11.63h-8.11V57.241Zm3.335,16.83H6.81V71.256H21.589Zm9.332-3.3v3.3H23.974v-3.3a1.9,1.9,0,0,0-1.9-1.9H20.639V57.241h1.435a1.9,1.9,0,0,0,1.9-1.9v-3.3h6.948v3.3a1.9,1.9,0,0,0,1.9,1.9H34.26v11.63H32.825A1.906,1.906,0,0,0,30.921,70.776Zm17.169,3.3H33.306V71.256H48.09Zm9.332-3.3v3.3H50.474v-3.3a1.906,1.906,0,0,0-1.9-1.9H47.135V57.241H48.57a1.9,1.9,0,0,0,1.9-1.9v-3.3h6.948v3.3a1.9,1.9,0,0,0,1.9,1.9h1.435v11.63H59.326A1.906,1.906,0,0,0,57.422,70.776Zm17.169.48v2.816H59.807V71.256ZM63.146,68.871V57.241h8.106v11.63ZM59.807,54.857V52.041H74.591v2.816Z" fill="#f70b0b"/>
      <path id="Path_195" data-name="Path 195" d="M235.613,92.5a5.009,5.009,0,1,0-5.009,5.009A5.015,5.015,0,0,0,235.613,92.5Zm-7.633,0a2.624,2.624,0,1,1,2.624,2.625A2.627,2.627,0,0,1,227.98,92.5Z" transform="translate(-189.73 -72.496)" fill="#f70b0b"/>
      <g id="Group_256" data-name="Group 256" transform="translate(19.63 28.504)">
        <path id="Path_196" data-name="Path 196" d="M130.161,178.277a3.317,3.317,0,0,0-2.8-5.1h-2.69a1.192,1.192,0,0,0-1.192,1.192v9.259a1.192,1.192,0,0,0,1.192,1.192h.005s2.473-.011,3.154-.011a3.683,3.683,0,0,0,2.334-6.534Zm-2.8-2.714a.938.938,0,0,1,0,1.877l-1.5,0v-1.879h1.5Zm.47,6.864c-.363,0-1.231,0-1.967.006v-2.6l1.967,0a1.3,1.3,0,0,1,0,2.6Z" transform="translate(-123.476 -173.062)" fill="#f70b0b"/>
        <path id="Path_197" data-name="Path 197" d="M193.413,174.08l-.012-.032a1.4,1.4,0,0,0-1.3-.869h0a1.4,1.4,0,0,0-1.3.871l-.011.027-3.477,9.129a1.192,1.192,0,0,0,2.229.849l.573-1.506h3.94l.567,1.5a1.192,1.192,0,1,0,2.231-.842Zm-2.385,6.084,1.071-2.812,1.061,2.812Z" transform="translate(-177.103 -173.063)" fill="#f70b0b"/>
        <path id="Path_198" data-name="Path 198" d="M271.424,173.179h-.012a1.192,1.192,0,0,0-1.181,1.2l.054,5.529-4.282-6.2a1.192,1.192,0,0,0-2.173.678v9.242a1.192,1.192,0,1,0,2.385,0v-5.417l4.076,5.9a1.313,1.313,0,0,0,1.484.546,1.361,1.361,0,0,0,.928-1.354l-.086-8.947A1.192,1.192,0,0,0,271.424,173.179Z" transform="translate(-241.516 -173.063)" fill="#f70b0b"/>
        <path id="Path_199" data-name="Path 199" d="M348.824,182.159l-4.165-4.018,3.811-3.5a1.192,1.192,0,0,0-1.614-1.756l-3.044,2.8v-2.039a1.192,1.192,0,0,0-2.385,0v9.375a1.192,1.192,0,0,0,2.385,0v-2.38l3.356,3.238a1.192,1.192,0,1,0,1.656-1.716Z" transform="translate(-306.779 -172.45)" fill="#f70b0b"/>
      </g>
    </g>
  </g>
</svg>
