<svg id="Group_316" data-name="Group 316" xmlns="http://www.w3.org/2000/svg" width="78.635" height="78.383" viewBox="0 0 78.635 78.383">
  <g id="Group_315" data-name="Group 315" transform="translate(0 0)">
    <path id="Path_265" data-name="Path 265" d="M77.923,37.687a1.154,1.154,0,0,0-1.258.25l-3.457,3.457v-23.5a1.154,1.154,0,0,0-1.154-1.154H63.186L66.4,13.518v0l3.1-3.1a3.52,3.52,0,0,0,0-4.977L65.921,1.851a3.52,3.52,0,0,0-4.977,0l-3.1,3.1L54.091,8.7l-8.033,8.033H10.232V5.318A1.154,1.154,0,0,0,9.078,4.164,9.088,9.088,0,0,0,0,13.242V62.264a1.157,1.157,0,0,0,.027.248A8.742,8.742,0,0,0,8.743,70.59H44.012L37.37,77.233a1.154,1.154,0,0,0,.816,1.97h39.3a1.154,1.154,0,0,0,1.154-1.154v-39.3A1.154,1.154,0,0,0,77.923,37.687ZM62.577,3.483a1.212,1.212,0,0,1,1.712,0L67.876,7.07a1.212,1.212,0,0,1,0,1.712L65.589,11.07l-5.3-5.3ZM58.657,7.4l5.3,5.3L61.839,14.82l-5.3-5.3Zm17.67,44.32H74.2a1.154,1.154,0,0,0,0,2.308h2.129v3.478H74.2a1.154,1.154,0,0,0,0,2.308h2.129V63.3H74.2a1.154,1.154,0,1,0,0,2.308h2.129v3.478H74.2a1.154,1.154,0,0,0,0,2.308h2.129v5.5H40.972L52.63,65.237A1.154,1.154,0,0,0,51,63.6L46.32,68.282H8.743a6.4,6.4,0,0,1-6.429-6.227q.01-.329.051-.652v0q.019-.153.046-.3l.006-.035q.024-.135.054-.269l.017-.074q.026-.113.057-.225c.011-.041.023-.081.034-.121.017-.059.034-.117.053-.175s.038-.115.059-.172c.014-.04.028-.08.043-.12.028-.076.058-.15.089-.225l.026-.064c.039-.092.08-.183.124-.273l.005-.012A6.8,6.8,0,0,1,7.7,55.636l.018,0c.1-.02.192-.036.289-.052l.049-.008c.088-.013.176-.024.265-.034l.075-.009c.086-.009.172-.014.258-.02l.082-.006q.17-.009.341-.009a1.154,1.154,0,0,0,1.154-1.154V45.972a1.154,1.154,0,1,0-2.308,0v7.287a9.015,9.015,0,0,0-5.185,2.509c-.15.147-.292.3-.431.454V13.242A6.781,6.781,0,0,1,7.923,6.571V41.355h0a1.154,1.154,0,0,0,2.308,0h0V19.045H43.75l-6.381,6.381A1.154,1.154,0,1,0,39,27.058l8.351-8.351h0l7.554-7.554,5.3,5.3-.622.622h0L36.311,40.348l-5.3-5.3L35.6,30.461a1.154,1.154,0,0,0-1.632-1.632l-5.4,5.4a1.159,1.159,0,0,0-.081.091c-.008.01-.016.022-.024.033s-.032.043-.047.066l-.024.04c-.013.021-.025.043-.036.066s-.014.029-.021.044-.02.046-.029.069-.007.016-.01.024l-2.249,6.37-1.533,4.343a1.167,1.167,0,0,0-.046.176H20.625a1.154,1.154,0,0,0,0,2.308H52.588a1.154,1.154,0,0,0,0-2.308H29.656l7.039-2.485.017-.007c.027-.01.054-.022.081-.034l.031-.015c.028-.014.055-.029.082-.045l.026-.015c.028-.018.055-.037.081-.058l.02-.015a1.16,1.16,0,0,0,.093-.083L60.877,19.045H70.9V43.7L54.39,60.213a1.154,1.154,0,0,0,0,1.632,1.18,1.18,0,0,0,.088.079,1.153,1.153,0,0,0,1.545-.079h0l20.3-20.3ZM34.2,41.5l-3.306,1.167-2.2-2.2,1.167-3.306Z" transform="translate(0 -0.82)" fill="#f70b0b"/>
  </g>
</svg>
