<svg xmlns="http://www.w3.org/2000/svg" width="78.025" height="78.025" viewBox="0 0 78.025 78.025">
  <g id="Group_621" data-name="Group 621" transform="translate(-616.097 -2519.999)">
    <g id="Group_255" data-name="Group 255" transform="translate(153.097 2185)">
      <g id="Group_253" data-name="Group 253" transform="translate(463 391.368)">
        <path id="Path_189" data-name="Path 189" d="M472.752,593.44a1.765,1.765,0,1,0-2.5-2.5l-6.738,6.738a1.766,1.766,0,0,0,2.5,2.5Zm0,0" transform="translate(-463 -590.426)" fill="#f70b0b"/>
      </g>
      <path id="Path_190" data-name="Path 190" d="M699.958,381.343a8.29,8.29,0,1,0,11.723,0,8.238,8.238,0,0,0-11.723,0Zm9.227,9.227a4.759,4.759,0,1,1,1.394-3.365,4.763,4.763,0,0,1-1.394,3.365Zm0,0" transform="translate(-182.773 -34.227)" fill="#f70b0b"/>
      <g id="Group_254" data-name="Group 254" transform="translate(464.966 334.999)">
        <path id="Path_191" data-name="Path 191" d="M488.4,616.173a1.765,1.765,0,0,0-2.5,0l-9.452,9.452a1.765,1.765,0,1,0,2.5,2.5l9.452-9.451a1.765,1.765,0,0,0,0-2.5Zm0,0" transform="translate(-475.045 -553.719)" fill="#f70b0b"/>
        <path id="Path_192" data-name="Path 192" d="M546.843,337.353a1.764,1.764,0,0,0-1.229-1.229,33.033,33.033,0,0,0-20.155,1,39.225,39.225,0,0,0-13.958,8.7l-5.49,5.49-19.889,3.107a1.765,1.765,0,0,0-.976.5l-12.721,12.72a1.765,1.765,0,0,0,1.174,3.012l12.548.529L483,374.331a1.765,1.765,0,0,0,0,2.5l1.835,1.835-5.482,8.4a1.764,1.764,0,0,0,.23,2.213l14.1,14.1a1.765,1.765,0,0,0,2.214.23l8.4-5.482,1.835,1.836a1.766,1.766,0,0,0,2.5,0l3.145-3.146.529,12.548a1.765,1.765,0,0,0,3.012,1.174l12.721-12.72a1.768,1.768,0,0,0,.5-.976l3.108-19.889,5.49-5.49a39.222,39.222,0,0,0,8.7-13.958,33.047,33.047,0,0,0,1-20.155ZM495.17,399.87,483.1,387.8l4.294-6.581,5.932,5.933-.7.7a1.766,1.766,0,1,0,2.5,2.5l.7-.7,5.933,5.934Zm39.466-30.9-5.9,5.9,0,0L522.6,381a1.766,1.766,0,0,0,2.5,2.5l2.309-2.309-2.271,14.539-9.47,9.471-.495-11.774,4.933-4.933a1.766,1.766,0,1,0-2.5-2.5l-5.477,5.477-.009.009-4.736,4.735-1.574-1.574-.055-.055-7.442-7.442L519.668,365.8a1.766,1.766,0,0,0-2.5-2.5l-21.352,21.353-7.443-7.443-.054-.054-1.574-1.574,4.735-4.736a.034.034,0,0,0,.009-.009l5.478-5.477a1.766,1.766,0,0,0-2.5-2.5l-4.933,4.933-11.774-.495,9.47-9.47,14.539-2.271-2.309,2.309,2.5,2.5,6.117-6.117.04-.039L514,348.33c4.913-4.913,16.578-12.193,29.7-9.057,3.135,13.118-4.144,24.783-9.057,29.7Zm0,0" transform="translate(-471.908 -334.999)" fill="#f70b0b"/>
      </g>
      <path id="Path_193" data-name="Path 193" d="M521.856,642.543l-6.739,6.739a1.766,1.766,0,0,0,2.5,2.5l6.738-6.738a1.766,1.766,0,0,0-2.5-2.5Zm0,0" transform="translate(-40.213 -239.271)" fill="#f70b0b"/>
    </g>
  </g>
</svg>
