<svg xmlns="http://www.w3.org/2000/svg" width="80.885" height="75.667" viewBox="0 0 80.885 75.667">
  <g id="Group_619" data-name="Group 619" transform="translate(-131 -2730)">
    <path id="Path_258" data-name="Path 258" d="M94.352,342.321V331.884a1.3,1.3,0,0,0-1.3-1.3H90.438V320.143a1.3,1.3,0,0,0-1.3-1.3H77.392a1.3,1.3,0,0,0-1.3,1.3v10.437H69.565a1.3,1.3,0,0,0-1.3,1.3v10.437H26.513a6.531,6.531,0,0,0-6.523,6.523v2.609a6.53,6.53,0,0,0,6.523,6.523H94.352a6.53,6.53,0,0,0,6.523-6.523v-2.609A6.531,6.531,0,0,0,94.352,342.321Zm-2.609,0H82.611v-9.132h9.132ZM78.7,321.447h9.132v9.132H78.7Zm-7.828,11.741H80v9.132H70.869Zm27.4,18.264a3.914,3.914,0,0,1-3.914,3.914H26.513a3.914,3.914,0,0,1-3.914-3.914v-2.609a3.914,3.914,0,0,1,3.914-3.914H94.352a3.914,3.914,0,0,1,3.914,3.914Z" transform="translate(111.01 2447.691)" fill="#f70b0b"/>
    <path id="Path_255" data-name="Path 255" d="M21.295,71.594h7.237a19.406,19.406,0,0,0,1.838,4.42l-5.123,5.121a1.305,1.305,0,0,0,0,1.846l5.534,5.536a1.306,1.306,0,0,0,1.845,0l5.123-5.124a19.393,19.393,0,0,0,4.419,1.837v7.237a1.3,1.3,0,0,0,1.3,1.3H51.3a1.3,1.3,0,0,0,1.3-1.3V85.23a19.394,19.394,0,0,0,4.419-1.837l5.123,5.124a1.343,1.343,0,0,0,1.845,0l5.535-5.536a1.305,1.305,0,0,0,0-1.846L64.4,76.014a19.407,19.407,0,0,0,1.838-4.42h7.237a1.3,1.3,0,0,0,1.3-1.3V62.462a1.3,1.3,0,0,0-1.3-1.3H66.241a19.409,19.409,0,0,0-1.838-4.42l5.123-5.121a1.305,1.305,0,0,0,0-1.846l-5.534-5.536a1.3,1.3,0,0,0-1.845,0l-5.123,5.124A19.45,19.45,0,0,0,52.6,47.522V40.284a1.3,1.3,0,0,0-1.3-1.3H43.473a1.3,1.3,0,0,0-1.3,1.3v7.238a19.45,19.45,0,0,0-4.419,1.837l-5.123-5.124a1.343,1.343,0,0,0-1.845,0l-5.535,5.536a1.305,1.305,0,0,0,0,1.846l5.124,5.121a19.409,19.409,0,0,0-1.838,4.42H21.295a1.3,1.3,0,0,0-1.3,1.3v7.828A1.3,1.3,0,0,0,21.295,71.594Zm1.3-7.828h6.954a1.3,1.3,0,0,0,1.274-1.025,16.789,16.789,0,0,1,2.286-5.5,1.3,1.3,0,0,0-.176-1.627l-4.923-4.923L31.7,47l4.922,4.923a1.3,1.3,0,0,0,1.628.177,16.812,16.812,0,0,1,5.5-2.286,1.306,1.306,0,0,0,1.025-1.275V41.588H50v6.954a1.306,1.306,0,0,0,1.025,1.275,16.812,16.812,0,0,1,5.5,2.286,1.3,1.3,0,0,0,1.628-.177L63.069,47l3.69,3.691-4.922,4.922a1.305,1.305,0,0,0-.176,1.628,16.78,16.78,0,0,1,2.284,5.5,1.306,1.306,0,0,0,1.275,1.026h6.955v5.218H65.219a1.305,1.305,0,0,0-1.275,1.025,16.764,16.764,0,0,1-2.284,5.5,1.305,1.305,0,0,0,.176,1.627l4.923,4.922-3.691,3.692-4.922-4.924a1.306,1.306,0,0,0-1.628-.176,16.772,16.772,0,0,1-5.5,2.286A1.3,1.3,0,0,0,50,84.209v6.953H44.777V84.209a1.3,1.3,0,0,0-1.027-1.275,16.773,16.773,0,0,1-5.5-2.286,1.306,1.306,0,0,0-1.628.176L31.7,85.749l-3.69-3.691,4.922-4.922a1.3,1.3,0,0,0,.176-1.628,16.792,16.792,0,0,1-2.286-5.5,1.3,1.3,0,0,0-1.274-1.024H22.6Z" transform="translate(111.01 2691.021)" fill="#f70b0b"/>
    <path id="Path_256" data-name="Path 256" d="M160.361,189.788a10.437,10.437,0,1,0-10.437-10.437A10.436,10.436,0,0,0,160.361,189.788Zm0-18.264a7.828,7.828,0,1,1-7.828,7.828A7.828,7.828,0,0,1,160.361,171.523Z" transform="translate(-1.965 2578.047)" fill="#f70b0b"/>
    <path id="Path_257" data-name="Path 257" d="M134.29,167.63a14.351,14.351,0,1,0-14.351-14.351A14.351,14.351,0,0,0,134.29,167.63Zm0-26.092a11.741,11.741,0,1,1-11.741,11.741A11.741,11.741,0,0,1,134.29,141.538Z" transform="translate(24.105 2604.117)" fill="#f70b0b"/>
    <path id="Path_259" data-name="Path 259" d="M303.763,528.732a3.914,3.914,0,1,0,3.914,3.914A3.914,3.914,0,0,0,303.763,528.732Zm0,5.218a1.3,1.3,0,1,1,1.3-1.3A1.3,1.3,0,0,1,303.763,533.95Z" transform="translate(-132.32 2265.193)" fill="#f70b0b"/>
    <path id="Path_260" data-name="Path 260" d="M203.813,528.732a3.914,3.914,0,1,0,3.914,3.914A3.914,3.914,0,0,0,203.813,528.732Zm0,5.218a1.3,1.3,0,1,1,1.3-1.3A1.3,1.3,0,0,1,203.813,533.95Z" transform="translate(-45.416 2265.193)" fill="#f70b0b"/>
    <path id="Path_261" data-name="Path 261" d="M403.712,528.732a3.914,3.914,0,1,0,3.914,3.914A3.914,3.914,0,0,0,403.712,528.732Zm0,5.218a1.3,1.3,0,1,1,1.3-1.3A1.3,1.3,0,0,1,403.712,533.95Z" transform="translate(-219.223 2265.193)" fill="#f70b0b"/>
    <path id="Path_262" data-name="Path 262" d="M103.864,528.732a3.914,3.914,0,1,0,3.914,3.914A3.914,3.914,0,0,0,103.864,528.732Zm0,5.218a1.3,1.3,0,1,1,1.3-1.3A1.3,1.3,0,0,1,103.864,533.95Z" transform="translate(41.486 2265.193)" fill="#f70b0b"/>
    <path id="Path_263" data-name="Path 263" d="M503.662,528.732a3.914,3.914,0,1,0,3.914,3.914A3.914,3.914,0,0,0,503.662,528.732Zm0,5.218a1.3,1.3,0,1,1,1.3-1.3A1.3,1.3,0,0,1,503.662,533.95Z" transform="translate(-306.127 2265.193)" fill="#f70b0b"/>
  </g>
</svg>
