<svg xmlns="http://www.w3.org/2000/svg" width="95.27" height="75.356" viewBox="0 0 95.27 75.356">
  <g id="Group_622" data-name="Group 622" transform="translate(-608 -2729)">
    <g id="Group_311" data-name="Group 311" transform="translate(608.001 2675.49)">
      <g id="Group_298" data-name="Group 298" transform="translate(35.469 67.786)">
        <g id="Group_297" data-name="Group 297" transform="translate(0 0)">
          <path id="Path_248" data-name="Path 248" d="M224.491,130.3H194.14a1.426,1.426,0,1,0,0,2.852h30.351a1.426,1.426,0,1,0,0-2.852Z" transform="translate(-192.714 -130.296)" fill="#f70b0b"/>
        </g>
      </g>
      <g id="Group_300" data-name="Group 300" transform="translate(24.608 67.786)">
        <g id="Group_299" data-name="Group 299" transform="translate(0 0)">
          <path id="Path_249" data-name="Path 249" d="M138.719,130.3h-4.808a1.426,1.426,0,1,0,0,2.852h4.808a1.426,1.426,0,1,0,0-2.852Z" transform="translate(-132.486 -130.296)" fill="#f70b0b"/>
        </g>
      </g>
      <g id="Group_302" data-name="Group 302" transform="translate(24.536 110.557)">
        <g id="Group_301" data-name="Group 301">
          <path id="Path_250" data-name="Path 250" d="M148.825,360.341H133.912a1.426,1.426,0,0,0,0,2.852h14.913a1.426,1.426,0,1,0,0-2.852Z" transform="translate(-132.486 -360.341)" fill="#f70b0b"/>
        </g>
      </g>
      <g id="Group_304" data-name="Group 304" transform="translate(24.485 96.3)">
        <g id="Group_303" data-name="Group 303">
          <path id="Path_251" data-name="Path 251" d="M154.809,283.66h-20.9a1.426,1.426,0,0,0,0,2.852h20.9a1.426,1.426,0,1,0,0-2.852Z" transform="translate(-132.486 -283.66)" fill="#f70b0b"/>
        </g>
      </g>
      <g id="Group_306" data-name="Group 306" transform="translate(24.375 82.043)">
        <g id="Group_305" data-name="Group 305">
          <path id="Path_252" data-name="Path 252" d="M164.981,206.977H133.912a1.426,1.426,0,1,0,0,2.852h31.069a1.426,1.426,0,0,0,0-2.852Z" transform="translate(-132.486 -206.977)" fill="#f70b0b"/>
        </g>
      </g>
      <g id="Group_308" data-name="Group 308" transform="translate(0 53.51)">
        <g id="Group_307" data-name="Group 307" transform="translate(0 0)">
          <path id="Path_253" data-name="Path 253" d="M82.85,53.51H25.175a9.278,9.278,0,0,0-9.265,9.271V117.73H1.395A1.4,1.4,0,0,0,0,119.14c.055,5.545,4.037,9.726,9.262,9.726h57.85a9.278,9.278,0,0,0,9.265-9.271V102.673a1.4,1.4,0,1,0-2.791,0V119.6a6.483,6.483,0,0,1-6.473,6.478h-.176c-3.65,0-6.432-2.993-6.471-6.961a1.4,1.4,0,0,0-1.4-1.383H18.7V62.781A6.483,6.483,0,0,1,25.176,56.3H76.228c-.041.042-.08.086-.12.129s-.1.1-.146.156-.1.114-.148.171-.094.109-.14.165-.093.118-.139.177-.09.114-.133.172-.087.121-.13.182-.085.119-.126.18-.08.124-.12.187-.08.124-.118.187-.074.129-.111.193-.074.128-.109.193-.068.132-.1.2-.068.132-.1.2-.062.136-.092.2-.062.135-.091.2-.056.14-.083.21-.055.138-.081.208-.049.145-.074.218-.048.139-.07.21-.043.15-.064.226-.041.14-.059.211-.037.157-.055.236-.033.138-.047.208-.03.165-.044.248-.026.136-.036.205c-.013.088-.023.178-.034.267-.008.064-.018.128-.024.193-.01.1-.016.2-.023.3,0,.055-.01.11-.012.166q-.012.235-.012.473V75.176a1.4,1.4,0,1,0,2.791,0V64.647H90.732a1.4,1.4,0,0,0,1.4-1.41C92.072,57.691,88.09,53.51,82.85,53.51ZM57.771,120.523q.029.217.066.43c.008.048.018.094.027.142.018.094.035.188.055.281.012.056.025.11.038.165.019.084.039.167.06.25.015.058.031.115.047.172.022.079.044.157.067.234.017.058.036.116.054.174q.036.113.075.225.03.086.061.172.041.111.084.22c.022.055.044.111.066.166.031.074.063.147.095.22.023.052.046.1.07.156.035.076.073.151.11.226.023.047.045.093.069.14.045.088.093.175.141.261.017.031.034.063.052.095q.1.175.206.345c.017.026.034.052.051.078.055.087.111.172.169.257.027.039.055.077.082.115.05.07.1.14.151.209.031.041.063.081.094.122.05.064.1.128.151.191l.1.122q.077.091.156.18l.108.118c.026.028.051.057.077.084H9.262a6.469,6.469,0,0,1-6.337-5.55Zm18.674-58.67c0-.009,0-.019,0-.029.006-.043.014-.085.021-.127.01-.06.02-.119.032-.178s.019-.09.029-.134.025-.111.038-.166.024-.092.036-.138.029-.1.044-.156.029-.093.044-.14.033-.1.05-.148.034-.095.051-.142.036-.092.054-.138.039-.1.06-.144.038-.085.057-.127.046-.1.07-.149.037-.072.056-.108c.028-.054.055-.107.084-.16.011-.02.023-.04.035-.06a6.486,6.486,0,0,1,.425-.659l0-.006c.05-.067.1-.133.154-.2l.025-.031c.051-.063.1-.125.157-.186l.03-.034q.081-.092.167-.181l.028-.029q.088-.091.18-.179l.021-.02q.1-.092.2-.179L78.6,57.9a6.469,6.469,0,0,1,3.067-1.486h0q.143-.027.287-.047l.017,0q.138-.019.278-.032l.043,0c.085-.007.171-.014.257-.018l.15,0c.054,0,.108,0,.162,0a6.469,6.469,0,0,1,6.337,5.55Z" transform="translate(0 -53.51)" fill="#f70b0b"/>
        </g>
      </g>
      <g id="Group_310" data-name="Group 310" transform="translate(49.106 77.371)">
        <g id="Group_309" data-name="Group 309" transform="translate(0 0)">
          <path id="Path_254" data-name="Path 254" d="M315.168,185.708c0-.017,0-.033,0-.05a1.417,1.417,0,0,0-.07-.386c0-.006,0-.012,0-.018s0-.01-.006-.014a1.442,1.442,0,0,0-.079-.181l-.012-.021a1.432,1.432,0,0,0-.093-.148l-.021-.03a1.417,1.417,0,0,0-.122-.14l-.029-.028a1.418,1.418,0,0,0-.13-.111l-.018-.014a1.462,1.462,0,0,0-.162-.1l-.033-.017a1.411,1.411,0,0,0-.177-.076h0a1.448,1.448,0,0,0-.189-.049l-.043-.008a1.426,1.426,0,0,0-.2-.02c-11.93-.309-27.487,2.563-35.352,11.542-3.442,3.929-5.03,8.914-6.566,13.735q-.189.592-.378,1.183c-.005.017-.01.033-.015.05l-2.41,8.558a1.426,1.426,0,1,0,2.745.773l2.235-7.938a44.387,44.387,0,0,1,7.9-2.687c1.542-.419,3.289-.894,5.4-1.545,4.571-1.406,13.339-7.288,17.375-11.655a97.449,97.449,0,0,1,9.93-9.491l.011-.011a1.43,1.43,0,0,0,.141-.136l.008-.009a1.424,1.424,0,0,0,.119-.156l.02-.03a1.418,1.418,0,0,0,.16-.353l.01-.036a1.425,1.425,0,0,0,.038-.19s0-.005,0-.008c.005-.044.009-.089.01-.134C315.17,185.74,315.168,185.724,315.168,185.708Zm-34.594,12.007c3.319-3.789,8.405-6.645,15.119-8.488A55.916,55.916,0,0,1,301.369,188a110.287,110.287,0,0,0-12.435,7.236,114.059,114.059,0,0,0-12.385,9.468A23.4,23.4,0,0,1,280.574,197.715Zm22.053-3.34c-3.928,4.25-12.41,9.724-16.119,10.864-2.07.636-3.793,1.105-5.313,1.519-1.376.374-2.627.715-3.865,1.108.554-.53,1.2-1.125,1.968-1.792a114.093,114.093,0,0,1,11.22-8.471c7.2-4.808,13.71-8.183,18.488-9.646C306.931,189.869,304.89,191.927,302.627,194.375Z" transform="translate(-269.006 -184.272)" fill="#f70b0b"/>
        </g>
      </g>
    </g>
  </g>
</svg>
