<svg xmlns="http://www.w3.org/2000/svg" width="78.116" height="79" viewBox="0 0 78.116 79">
  <g id="Group_618" data-name="Group 618" transform="translate(-129.977 -2916)">
    <path id="Path_173" data-name="Path 173" d="M614.87,347.139a7.069,7.069,0,1,0-7.069-7.069,7.077,7.077,0,0,0,7.069,7.069Zm0-10.6a3.535,3.535,0,1,1-3.535,3.535,3.539,3.539,0,0,1,3.535-3.535Zm0,0" transform="translate(-445.836 2583)" fill="#f70b0b"/>
    <path id="Path_174" data-name="Path 174" d="M585.568,419.139a1.767,1.767,0,0,0,1.767-1.767,8.837,8.837,0,1,1,17.673,0,1.767,1.767,0,1,0,3.535,0,12.371,12.371,0,1,0-24.743,0,1.767,1.767,0,0,0,1.767,1.767Zm0,0" transform="translate(-427.138 2526.906)" fill="#f70b0b"/>
    <path id="Path_175" data-name="Path 175" d="M567.649,481.054l2.437-31.534h5.433a1.767,1.767,0,1,0,0-3.535H554.311v-7.027a1.767,1.767,0,0,0-3.535,0v7.027H529.568a1.767,1.767,0,0,0,0,3.535H535l2.437,31.534a1.767,1.767,0,0,0,1.76,1.632c.046,0,.092,0,.138-.006a1.767,1.767,0,0,0,1.626-1.9l-2.416-31.262H566.54l-2.415,31.262a1.768,1.768,0,0,0,1.626,1.9c.047,0,.092.006.138.006a1.768,1.768,0,0,0,1.76-1.632Zm0,0" transform="translate(-383.509 2501.827)" fill="#f70b0b"/>
    <path id="Path_176" data-name="Path 176" d="M621.94,561.671a7.069,7.069,0,1,0-7.069,7.069,7.077,7.077,0,0,0,7.069-7.069Zm-10.6,0a3.535,3.535,0,1,1,3.535,3.535,3.538,3.538,0,0,1-3.535-3.535Zm0,0" transform="translate(-445.836 2410.354)" fill="#f70b0b"/>
    <path id="Path_177" data-name="Path 177" d="M596.172,626.6A12.385,12.385,0,0,0,583.8,638.973a1.767,1.767,0,1,0,3.535,0,8.837,8.837,0,1,1,17.673,0,1.767,1.767,0,1,0,3.535,0A12.385,12.385,0,0,0,596.172,626.6Zm0,0" transform="translate(-427.138 2354.259)" fill="#f70b0b"/>
    <path id="Path_178" data-name="Path 178" d="M728.6,561.671a7.069,7.069,0,1,0,7.069-7.069,7.077,7.077,0,0,0-7.069,7.069Zm7.069-3.535a3.535,3.535,0,1,1-3.535,3.535,3.539,3.539,0,0,1,3.535-3.535Zm0,0" transform="translate(-539.95 2410.354)" fill="#f70b0b"/>
    <path id="Path_179" data-name="Path 179" d="M716.973,626.6A12.385,12.385,0,0,0,704.6,638.973a1.767,1.767,0,1,0,3.535,0,8.837,8.837,0,0,1,17.673,0,1.767,1.767,0,1,0,3.535,0A12.386,12.386,0,0,0,716.973,626.6Zm0,0" transform="translate(-521.252 2354.259)" fill="#f70b0b"/>
    <path id="Path_180" data-name="Path 180" d="M494.069,568.741A7.069,7.069,0,1,0,487,561.671a7.077,7.077,0,0,0,7.069,7.069Zm0-10.6a3.535,3.535,0,1,1-3.535,3.535,3.538,3.538,0,0,1,3.535-3.535Zm0,0" transform="translate(-351.722 2410.354)" fill="#f70b0b"/>
    <path id="Path_181" data-name="Path 181" d="M475.371,626.6A12.385,12.385,0,0,0,463,638.973a1.767,1.767,0,1,0,3.535,0,8.837,8.837,0,0,1,17.673,0,1.767,1.767,0,1,0,3.535,0A12.385,12.385,0,0,0,475.371,626.6Zm0,0" transform="translate(-333.023 2354.259)" fill="#f70b0b"/>
  </g>
</svg>
