<svg xmlns="http://www.w3.org/2000/svg" width="82.264" height="82.264" viewBox="0 0 82.264 82.264">
  <g id="Group_623" data-name="Group 623" transform="translate(-623.977 -2922.999)">
    <path id="Path_207" data-name="Path 207" d="M531.615,400.634h-7.961V394H521v82.264h2.654V403.288h7.961v1.327h2.653v-5.308h-2.653Zm0,0" transform="translate(102.977 2528.999)" fill="#f70b0b"/>
    <path id="Path_208" data-name="Path 208" d="M612.982,466.636v1.327A3.986,3.986,0,0,1,609,471.944h-9.754a4.577,4.577,0,0,0-.937-5.308,4.625,4.625,0,0,0,0-6.635,4.623,4.623,0,0,0,0-6.634,4.576,4.576,0,0,0,.937-5.308h3.669l-4.531-4.53v-9.444a3.148,3.148,0,0,1,.437.363l13.61,13.611h23.105v-2.654H613.531L600.7,432.573a5.884,5.884,0,0,0-2.313-1.412v-9.638h1.089l1.327-6.634h1.279a9.3,9.3,0,0,1,4.778,1.322l10.077,6.047a4.141,4.141,0,0,0,2.132.591h.388a4.141,4.141,0,0,0,2.928-7.069l-8.329-8.329a19.775,19.775,0,0,0-14.075-5.83H584.569l-1.327,1.327h-1.555l-1.326-1.327h-9.838v13.268h9.838l1.326-1.327h1.555l1.327,1.327h.788l1.328,6.634h1.087v23.883h-3.317a4.637,4.637,0,0,0-3.239,7.962,4.619,4.619,0,0,0,0,6.634,4.621,4.621,0,0,0,0,6.635,4.636,4.636,0,0,0,3.239,7.961h3.317v6.634h10.615V474.6H609a6.645,6.645,0,0,0,6.5-5.308h20.036v-2.653Zm-17.249,11.94h-5.307V474.6h5.307Zm-.664-6.634H584.455a1.99,1.99,0,0,1,0-3.981H595.07a1.99,1.99,0,0,1,0,3.981Zm0-6.634H584.455a1.99,1.99,0,0,1,0-3.981H595.07a1.99,1.99,0,0,1,0,3.981Zm0-6.634H584.455a1.99,1.99,0,0,1,0-3.981H595.07a1.99,1.99,0,0,1,0,3.981Zm0-6.635H584.455a1.99,1.99,0,1,1,0-3.98H595.07a1.99,1.99,0,1,1,0,3.98Zm-4.643-6.634V421.523h5.307v23.883ZM588.86,418.87l-1.327-6.635h-1.867l-1.327-1.327h-3.752l-1.327,1.327h-6.084v-7.961h6.084l1.327,1.327h3.752l1.328-1.327h14.313a17.135,17.135,0,0,1,12.2,5.053l8.329,8.329a1.487,1.487,0,0,1-1.05,2.54h-.388a1.5,1.5,0,0,1-.765-.212l-10.08-6.049a11.951,11.951,0,0,0-6.144-1.7h-3.453L597.3,418.87Zm0,0" transform="translate(70.702 2524.032)" fill="#f70b0b"/>
    <rect id="Rectangle_407" data-name="Rectangle 407" width="9.288" height="2.654" transform="translate(657.147 2930.96)" fill="#f70b0b"/>
    <rect id="Rectangle_408" data-name="Rectangle 408" width="2.654" height="2.654" transform="translate(669.089 2930.96)" fill="#f70b0b"/>
  </g>
</svg>
