<svg xmlns="http://www.w3.org/2000/svg" width="78.094" height="78.094" viewBox="0 0 78.094 78.094">
  <g id="Group_617" data-name="Group 617" transform="translate(-135 -3109)">
    <path id="Path_242" data-name="Path 242" d="M539.327,392.827h-65.82V343.753a8.756,8.756,0,0,0-8.74-8.753,1.767,1.767,0,1,0,0,3.534,5.219,5.219,0,0,1,5.206,5.219v50.841a1.767,1.767,0,0,0,1.767,1.767h67.587a1.767,1.767,0,0,0,0-3.534Zm0,0" transform="translate(-328 2774)" fill="#f70b0b"/>
    <path id="Path_243" data-name="Path 243" d="M528.341,516.839h53.452a1.767,1.767,0,0,0,1.767-1.767V500.478a1.767,1.767,0,0,0-1.767-1.767H528.341a1.767,1.767,0,0,0-1.767,1.767v14.594a1.767,1.767,0,0,0,1.767,1.767Zm40.044-3.534v-3.764h11.641v3.764Zm11.641-7.3H568.385v-3.763h11.641Zm-49.919-3.763h34.744v11.061H530.108Zm0,0" transform="translate(-377.534 2646.444)" fill="#f70b0b"/>
    <path id="Path_244" data-name="Path 244" d="M528.341,418.714h53.452a1.767,1.767,0,0,0,1.767-1.767V402.353a1.767,1.767,0,0,0-1.767-1.767H528.341a1.767,1.767,0,0,0-1.767,1.767v14.594a1.767,1.767,0,0,0,1.767,1.767Zm40.044-3.534v-3.764h11.641v3.764Zm11.641-7.3H568.385V404.12h11.641Zm-49.919-3.763h34.744V415.18H530.108Zm0,0" transform="translate(-377.534 2722.898)" fill="#f70b0b"/>
    <path id="Path_245" data-name="Path 245" d="M518.221,621.094a7.455,7.455,0,1,0,7.454,7.455,7.463,7.463,0,0,0-7.454-7.455Zm0,11.376a3.921,3.921,0,1,1,3.92-3.921,3.925,3.925,0,0,1-3.92,3.921Zm0,0" transform="translate(-365.217 2551.09)" fill="#f70b0b"/>
    <path id="Path_246" data-name="Path 246" d="M740.357,621.094a7.455,7.455,0,1,0,7.454,7.455,7.463,7.463,0,0,0-7.454-7.455Zm0,11.376a3.921,3.921,0,1,1,3.92-3.921,3.926,3.926,0,0,1-3.92,3.921Zm0,0" transform="translate(-538.294 2551.09)" fill="#f70b0b"/>
  </g>
</svg>
