<svg id="Group_156" data-name="Group 156" xmlns="http://www.w3.org/2000/svg" xmlns:xlink="http://www.w3.org/1999/xlink" width="32.929" height="32.934" viewBox="0 0 32.929 32.934">
  <defs>
    <clipPath id="clip-path">
      <path id="Path_81" data-name="Path 81" d="M0,19H32.929V-13.931H0Z" transform="translate(0 13.931)" fill="#fff"/>
    </clipPath>
  </defs>
  <g id="Group_48" data-name="Group 48" transform="translate(0 0)" clip-path="url(#clip-path)">
    <g id="Group_47" data-name="Group 47" transform="translate(0 -0.001)">
      <path id="Path_80" data-name="Path 80" d="M18.993,1.979a3.8,3.8,0,0,0-3.8-3.43q-12.645,0-25.291,0a3.5,3.5,0,0,0-.688.061,3.8,3.8,0,0,0-3.137,3.8V15.022q0,6.291,0,12.581a5.3,5.3,0,0,0,.043.641,3.784,3.784,0,0,0,3.707,3.239h25.43c.147,0,.288-.009.435-.024A3.785,3.785,0,0,0,19,27.738q0-12.716,0-25.432a2.14,2.14,0,0,0-.009-.326M2.542,8.686A6.332,6.332,0,1,1-3.787,15.01,6.33,6.33,0,0,1,2.542,8.686m12.674,3.972V26.305a1.274,1.274,0,0,1-1.378,1.381H-7.269c-.508,0-1.012,0-1.52,0a1.264,1.264,0,0,1-1.331-1.331q0-6.858,0-13.711V12.5h2.858a9.975,9.975,0,0,0,.915,7.383,9.951,9.951,0,0,0,3.936,3.981A10.11,10.11,0,0,0,8.244,23.4a10.108,10.108,0,0,0,4.106-10.9h2.863c0,.057,0,.111,0,.165m0-5.269a1.262,1.262,0,0,1-1.3,1.3H12.047c-.626,0-1.253,0-1.879,0a1.254,1.254,0,0,1-1.286-1.26q-.014-1.9,0-3.806a1.253,1.253,0,0,1,1.3-1.265q1.872,0,3.742,0a1.262,1.262,0,0,1,1.3,1.293q0,1.872,0,3.742" transform="translate(13.924 1.451)" fill="#fff"/>
    </g>
  </g>
</svg>
