<svg id="Group_292" data-name="Group 292" xmlns="http://www.w3.org/2000/svg" xmlns:xlink="http://www.w3.org/1999/xlink" width="12.221" height="16.598" viewBox="0 0 12.221 16.598">
  <defs>
    <clipPath id="clip-path">
      <path id="Path_88" data-name="Path 88" d="M0-17.393H12.221v-16.6H0Z" transform="translate(0 33.991)" fill="#f70b0b"/>
    </clipPath>
  </defs>
  <g id="Group_291" data-name="Group 291">
    <g id="Group_62" data-name="Group 62" transform="translate(0 0)" clip-path="url(#clip-path)">
      <g id="Group_61" data-name="Group 61" transform="translate(0 0)">
        <path id="Path_87" data-name="Path 87" d="M-6.4,0a6.117,6.117,0,0,0-6.11,6.111A5.96,5.96,0,0,0-11.979,8.6,38.526,38.526,0,0,0-6.66,16.48.341.341,0,0,0-6.4,16.6a.341.341,0,0,0,.258-.118A38.552,38.552,0,0,0-.827,8.6,5.96,5.96,0,0,0-.292,6.111,6.118,6.118,0,0,0-6.4,0" transform="translate(12.513)" fill="#f70b0b"/>
      </g>
    </g>
  </g>
  <circle id="Ellipse_55" data-name="Ellipse 55" cx="3" cy="3" r="3" transform="translate(3 3.371)" fill="#fff"/>
</svg>
