<?xml version="1.0" encoding="utf-8"?>
<!-- Generator: Adobe Illustrator 22.1.0, SVG Export Plug-In . SVG Version: 6.00 Build 0)  -->
<svg version="1.1" id="Layer_1" xmlns="http://www.w3.org/2000/svg" xmlns:xlink="http://www.w3.org/1999/xlink" x="0px" y="0px"
	 viewBox="0 0 147.4 31.8" style="enable-background:new 0 0 147.4 31.8;" xml:space="preserve">
<style type="text/css">
	.st0{fill:#FEE81C;}
	.st1{fill:#010101;}
</style>
<g>
	<rect x="0.8" y="1.1" class="st0" width="29.6" height="29.6"/>
	<path class="st1" d="M31.3,0.2v31.3H0V0.2H31.3z M30.5,1.1L30.5,1.1H0.9v29.6h29.6V1.1z M15.7,19.6L15.7,19.6l9.4,9.3l3.7-3.6
		l-9.4-9.4l1.8-1.9v-3.6l1.3-1.3v3l1.3,1.2l4.6-4.6l1.1,1.2c0-0.7-0.2-3.5-2.4-5.7c-2.4-2.4-4.9-1-5.7-0.1L17,8.5l1.1,1.1l-2.5,2.5
		l-2.4-2.5l1.1-1.1L9.9,4.1C9,3.2,6.6,1.9,4.2,4.2C2,6.3,1.8,9.1,1.8,9.9L3,8.7l4.6,4.6l1.3-1.2l0.1-3l1.3,1.3V14l1.9,1.9l-9.4,9.4
		l3.6,3.6L15.7,19.6z"/>
	<g>
		<path class="st1" d="M74,0v3.7c-1.9,0-4.9,0.8-4.9,4.4c0,3.7,3.1,4.4,4.9,4.4v3.6h3v-3.6c1.9,0,4.9-0.7,4.9-4.4S78.8,3.7,77,3.7V0
			C77,0,74,0,74,0z M74.2,10.7c-1,0-2.1-0.7-2.1-2.4s1.1-2.4,2.1-2.4V10.7z M79,8.3c0,1.7-1.1,2.4-2.1,2.4V5.9
			C77.9,5.9,79,6.5,79,8.3z"/>
		<polygon class="st1" points="58.8,12.5 61.8,12.5 64.8,7.8 64.8,12.5 67.8,12.5 67.8,4 64.8,4 61.7,8.5 61.7,4 58.8,4 		"/>
		<path class="st1" d="M67,1l-2-0.7c-0.3,0.9-1.2,1-1.5,1c-0.4,0-1.2-0.1-1.5-1L60,1c0.6,1.4,2,1.9,3.6,2C64.9,3,66.4,2.4,67,1z"/>
		<path class="st1" d="M39.8,8.4h1.8C45,8.4,46,6,46,4.3s-0.9-4.1-4.4-4.1h-5.2v12.2h3.4V8.4z M39.8,2.9h1c1.5,0,1.7,0.8,1.7,1.4
			c0,0.5-0.1,1.4-1.7,1.4h-1V2.9z"/>
		<path class="st1" d="M37.7,31.7c4.3,0,5-2.9,5.3-4.7l0.9-4.9h2.5l-1.7,9.4h3.4l2.2-12.3h-0.1v-0.1h-9.3l-1.2,6.8
			c-0.3,1.8-0.6,2.7-2.2,2.7c-0.2,0-0.4,0-0.7-0.1l-0.5,3C36.8,31.7,37.2,31.7,37.7,31.7z"/>
		<polygon class="st1" points="108.4,12.5 111.4,12.5 114.4,7.8 114.4,12.5 117.5,12.5 117.5,4 114.5,4 111.5,8.5 111.5,4 108.4,4 
					"/>
		<path class="st1" d="M87.9,0v3.7C86,3.7,83,4.5,83,8.1c0,3.7,3.1,4.4,4.9,4.4v3.6H91v-3.6c1.9,0,4.9-0.7,4.9-4.4S92.8,3.7,91,3.7
			V0C91,0,87.9,0,87.9,0z M88.1,10.7c-1,0-2.1-0.7-2.1-2.4s1.1-2.4,2.1-2.4V10.7z M92.9,8.3c0,1.7-1.1,2.4-2.1,2.4V5.9
			C91.8,5.9,92.9,6.5,92.9,8.3z"/>
		<path class="st1" d="M53.8,4.9C53,4,52.1,3.6,51,3.6c-2.9,0-4,2.4-4,4.6c0,2.9,1.8,4.6,4,4.6c1.2,0,2.2-0.6,2.8-1.3v1h3V4h-3V4.9z
			 M52.1,10.2c-1.3,0-1.8-1-1.8-2s0.5-2,1.8-2c1.1,0,1.8,0.8,1.8,2C53.9,9.5,53.1,10.3,52.1,10.2z"/>
		<path class="st1" d="M122.2,10.5c-1.1,0-1.8-0.3-2.7-0.8l-0.8,2c1.7,0.9,3.2,1,3.9,1c3.6,0,4-1.9,4-2.6c0-0.9-0.6-1.8-1.8-2.1
			c0.8-0.3,1.3-1.1,1.3-2c0-2-2.1-2.4-3.4-2.4c-1.2,0-2.7,0.4-3.6,0.9l0.8,1.9c0.7-0.4,1.6-0.7,2.3-0.7c0.4,0,1.2,0,1.2,0.7
			s-0.7,0.7-1,0.7h-1.6V9h1.3c0.5,0,1.3,0,1.3,0.7C123.4,10,123.3,10.5,122.2,10.5z"/>
		<polygon class="st1" points="144.4,7 141.6,7 141.6,4 138.5,4 138.5,12.5 141.6,12.5 141.6,9 144.4,9 144.4,12.5 147.4,12.5 
			147.4,4 144.4,4 		"/>
		<path class="st1" d="M116.8,1l-2-0.7c-0.3,0.9-1.1,1-1.5,1s-1.3-0.1-1.5-1l-2,0.7c0.6,1.4,2.3,2,3.6,2S116.2,2.4,116.8,1z"/>
		<path class="st1" d="M132.4,3.6c-2.9,0-4.7,1.9-4.7,4.6c0,3,2.1,4.6,4.7,4.6c0.8,0,3.6,0,4.6-2.9l-3.1-0.1
			c-0.1,0.7-0.8,1.1-1.6,1.1c-1.2,0-1.8-0.9-1.8-2h6.6C137.1,7,136.4,3.6,132.4,3.6z M130.7,7.3c0-0.9,0.7-1.7,1.7-1.7
			c1.1,0,1.6,0.8,1.7,1.7H130.7z"/>
		<polygon class="st1" points="55.8,19.2 52.5,19.2 50.3,31.5 53.7,31.5 59.8,24.2 58.5,31.5 61.8,31.5 64,19.2 60.6,19.2 
			54.5,26.5 		"/>
		<path class="st1" d="M66.5,22.4c0.9-0.5,1.6-0.9,2.6-0.9c1.1,0,1.7,0.5,1.6,1.2c-0.1,0.5-0.5,1.3-2,1.3h-2l-0.4,2.5h2
			c1.5,0,1.9,0.5,1.8,1.3c-0.1,0.5-0.5,1.3-2,1.3c-0.9,0-2-0.5-2.8-1.4L63.5,30c1.7,1.5,2.8,1.8,4.5,1.8c2.8,0,5.2-1.4,5.6-3.8
			c0.3-1.9-0.8-2.6-1.8-2.9V25c1.3-0.4,2.3-1.6,2.5-2.8c0.3-2-1.3-3.4-4.1-3.4c-2.2,0.1-3.8,0.9-4.4,1.2L66.5,22.4z"/>
		<path class="st1" d="M103.6,4.9c-0.8-0.9-1.7-1.3-2.8-1.3c-2.9,0-4,2.4-4,4.6c0,2.9,1.8,4.6,4,4.6c1.2,0,2.2-0.6,2.8-1.3v1h3V4h-3
			V4.9z M101.9,10.2c-1.3,0-1.8-1-1.8-2s0.5-2,1.8-2c1.1,0,1.8,0.8,1.8,2C103.7,9.5,103,10.3,101.9,10.2z"/>
		<polygon class="st1" points="101.4,31.5 104.8,31.5 106.4,22 110.3,22 110.8,19 103.6,19.2 		"/>
		<polygon class="st1" points="79.9,19.2 76.6,19.2 74.4,31.5 77.8,31.5 83.9,24.2 82.6,31.5 85.9,31.5 88.1,19.2 84.7,19.2 
			78.6,26.5 		"/>
		<polygon class="st1" points="93.8,19.2 90.3,19.2 88.1,31.5 91.5,31.5 92.4,26.5 96.6,26.5 95.7,31.5 99.1,31.5 101.3,19.2 
			97.9,19.2 97.2,23.5 93,23.5 		"/>
	</g>
</g>
</svg>
