<?xml version="1.0" encoding="UTF-8"?>
<!-- Generator: Adobe Illustrator 22.0.1, SVG Export Plug-In . SVG Version: 6.00 Build 0)  -->
<svg version="1.1" id="Livello_1" xmlns="http://www.w3.org/2000/svg" xmlns:xlink="http://www.w3.org/1999/xlink" x="0px" y="0px" viewBox="0 0 218.8 51.6" style="enable-background:new 0 0 218.8 51.6;" xml:space="preserve">
<style type="text/css">
	.st0{fill-rule:evenodd;clip-rule:evenodd;fill:#9E9E9F;}
	.st1{fill-rule:evenodd;clip-rule:evenodd;fill:#FFFFFF;}
	.st2{fill-rule:evenodd;clip-rule:evenodd;fill:#D70D25;}
	.st3{fill:#9E9E9F;}
	.st4{fill:none;stroke:#9E9E9F;stroke-width:0.5447;stroke-miterlimit:10;}
	.st5{clip-path:url(#SVGID_2_);}
	.st6{clip-path:url(#SVGID_6_);}
	.st7{clip-path:url(#SVGID_10_);}
	.st8{clip-path:url(#SVGID_14_);}
	.st9{clip-path:url(#SVGID_18_);}
	.st10{clip-path:url(#SVGID_22_);}
	.st11{clip-path:url(#SVGID_26_);}
	.st12{clip-path:url(#SVGID_30_);}
	.st13{clip-path:url(#SVGID_34_);}
	.st14{clip-path:url(#SVGID_38_);}
	.st15{clip-path:url(#SVGID_42_);}
	.st16{clip-path:url(#SVGID_46_);}
	.st17{clip-path:url(#SVGID_50_);}
	.st18{clip-path:url(#SVGID_54_);}
</style>
<path class="st0" d="M25.1,6.7c11,0,19.9,8.9,19.9,19.9c0,11-8.9,19.9-19.9,19.9c-11,0-19.9-8.9-19.9-19.9  C5.2,15.7,14.2,6.7,25.1,6.7"/>
<path class="st1" d="M24.2,36.1l0,8.5c-0.4-0.1-1.4,0-1.7-0.3c-1.9-2.6-2.8-4.7-3.9-6.9C20.5,36.5,22.3,36.2,24.2,36.1"/>
<path class="st1" d="M25.9,36.1l0,8.5c0.4-0.1,1.4,0,1.7-0.3c1.9-2.6,2.8-4.7,3.9-7C29.6,36.5,27.8,36.2,25.9,36.1"/>
<path class="st1" d="M24.2,16.9l0-8.5c-0.4,0.1-1.4,0-1.7,0.3c-1.9,2.6-2.8,4.7-3.9,7C20.5,16.5,22.2,16.8,24.2,16.9"/>
<path class="st1" d="M25.8,16.9l0-8.5c0.4,0.1,1.4,0,1.7,0.3c1.9,2.6,2.8,4.7,3.9,6.9C29.5,16.4,27.8,16.8,25.8,16.9"/>
<path class="st1" d="M24.2,32.1v2c-2.8,0.3-4.6,0.7-6.3,1.5c-0.7-1.4-0.9-2.4-1.1-3.5L24.2,32.1"/>
<path class="st1" d="M25.9,32.1l0,2c2.8,0.3,4.6,0.7,6.3,1.5c0.7-1.4,0.9-2.4,1.1-3.5L25.9,32.1"/>
<path class="st1" d="M24.2,20.8l0-2c-2.8-0.3-4.6-0.7-6.3-1.5c-0.7,1.4-0.9,2.5-1.1,3.5L24.2,20.8"/>
<path class="st1" d="M25.9,20.8v-2c2.8-0.3,4.6-0.7,6.3-1.5c0.7,1.4,0.9,2.4,1.2,3.5L25.9,20.8"/>
<path class="st1" d="M20.1,43.9c-1.5-2.2-2.6-4-3.3-5.9c-1.2,0.6-2.3,1.2-3.8,2.2C14.8,42,17.1,43.2,20.1,43.9"/>
<path class="st1" d="M30,43.8c1.5-2.2,2.6-4.1,3.3-5.9c1.2,0.6,2.3,1.2,3.8,2.2C35.3,41.9,33,43.2,30,43.8"/>
<path class="st1" d="M20.1,9.1c-1.5,2.2-2.6,4-3.3,5.9c-1.2-0.6-2.3-1.2-3.8-2.2C14.7,11,17.1,9.8,20.1,9.1"/>
<path class="st1" d="M29.9,9.1c1.5,2.2,2.6,4.1,3.3,5.9c1.2-0.6,2.4-1.2,3.8-2.2C35.3,11,32.9,9.8,29.9,9.1"/>
<path class="st1" d="M14.9,32.5c0.2,1.4,0.6,2.6,1.2,3.8c-1.7,0.7-3,1.4-4.5,2.6c-2-2.3-3.4-5.1-4.3-8.5L14.9,32.5"/>
<path class="st1" d="M35.1,32.5c-0.2,1.4-0.6,2.6-1.2,3.8c1.7,0.7,3,1.4,4.5,2.6c2-2.3,3.4-5.1,4.3-8.5L35.1,32.5"/>
<path class="st1" d="M14.9,20.4c0.2-1.4,0.6-2.6,1.2-3.8c-1.7-0.7-3-1.4-4.5-2.6c-2,2.3-3.4,5.1-4.3,8.5L14.9,20.4"/>
<path class="st1" d="M35.1,20.4c-0.2-1.4-0.6-2.6-1.2-3.8c1.7-0.7,3-1.4,4.5-2.6c2,2.3,3.4,5.1,4.3,8.5L35.1,20.4"/>
<path class="st2" d="M38.7,19.5l-25.4,0.1c-2.2,0.1-4.3-2-2.2-4.8c-3.8,4-4.8,8.4-4.2,14.6c0.7,1.8,1.5,3.2,4.6,3.1l26.8,0  c1.5,0,2.8,1.6,1.9,4c2.6-4.6,3.8-8.8,2.7-13.9C42.2,20.6,41.1,19.7,38.7,19.5"/>
<rect x="89.4" y="7.1" transform="matrix(1 -1.441769e-03 1.441769e-03 1 -3.754639e-02 0.1361)" class="st0" width="9.8" height="38"/>
<path class="st0" d="M132,45.1l0-9.1l-13.5,0c0,0-10.1-0.1-10.1-10c0-5.4,4.5-10,10.1-10l9.7,0l0-9l-9.8-0.1  C107.8,7,99.4,15.6,99.4,26c0,10.5,8.4,19.1,19,19.1L132,45.1"/>
<path class="st0" d="M138,38.4l-2.6,6.5l-10.5,0L139.5,7l10.7,0l14.4,37.8l-10.5,0l-2.4-6.5L138,38.4z M144.9,18.9L140.8,31l8.3,0  L144.9,18.9"/>
<path class="st0" d="M77.4,44.8C83.8,44.8,89,40,89,33.6c0-6.4-5.3-11.7-11.7-11.7l-11.5-0.4c-1.4,0-2.7-1.3-2.7-2.7  c0-1.4,1.3-2.6,2.7-2.6l21.9,0l0-9.1l-21.9,0c-6.4,0-11.7,5.3-11.7,11.7c0,6.4,5.3,11.7,11.7,11.7l11.4,0.3c1.6,0,2.7,1.1,2.7,2.7  c0,1.4-1.1,2.7-2.7,2.7l-23.1,0l0,8.7L77.4,44.8"/>
<path class="st0" d="M187.8,30.5c6.4,0,11.7-5.3,11.7-11.7c0-6.4-5.4-11.8-11.8-11.8l-22.9,0l0.1,37.9l9.8,0l0-28.9l13.1,0  c1.4,0,2.7,1.3,2.7,2.7c0,1.6-1.3,2.7-2.7,2.7l-4.6,0L187.8,30.5z"/>
<polygon class="st0" points="175.7,21.4 186.5,21.4 198.2,45 187.7,45 "/>
<g>
	<path class="st3" d="M207.3,9h2.1c0.4,0,0.6,0.1,0.9,0.2c0.4,0.2,0.6,0.6,0.6,1.1c0,0.3-0.1,0.5-0.2,0.7c-0.1,0.2-0.3,0.3-0.5,0.4   c0.2,0.1,0.3,0.2,0.4,0.3c0.1,0.1,0.1,0.3,0.2,0.6l0,0.6c0,0.2,0,0.3,0,0.4c0,0.1,0.1,0.2,0.2,0.3v0.1h-0.8c0,0,0-0.1-0.1-0.2   c0-0.1,0-0.2,0-0.4l0-0.8c0-0.3-0.1-0.5-0.3-0.6c-0.1-0.1-0.3-0.1-0.6-0.1h-1.4v2h-0.6V9z M209.3,11.1c0.3,0,0.5-0.1,0.7-0.2   c0.2-0.1,0.3-0.3,0.3-0.6c0-0.3-0.1-0.6-0.4-0.7c-0.1-0.1-0.3-0.1-0.5-0.1h-1.5v1.6H209.3z"/>
</g>
<g>
	<path class="st4" d="M213.4,11.2c0,2.3-1.9,4.2-4.2,4.2c-2.3,0-4.2-1.9-4.2-4.2c0-2.3,1.9-4.2,4.2-4.2   C211.5,7,213.4,8.9,213.4,11.2z"/>
</g>
<g>
	<defs>
		<path id="SVGID_1_" d="M15.1,19.3c0,0.1,0,0.2-0.1,0.3l1.9,0c0-0.1,0-0.2,0.1-0.3H15.1z M24.2,19.3v0.2l1.7,0v-0.2H24.2z     M32.9,19.3c0,0.1,0,0.1,0.1,0.2l1.9,0c0-0.1,0-0.1,0-0.2H32.9z M13.1,40.2c1.4-1,2.6-1.7,3.8-2.2c0.7,1.8,1.8,3.7,3.3,5.9    C17.1,43.2,14.8,42,13.1,40.2 M33.2,38c1.2,0.6,2.3,1.2,3.8,2.2c-1.7,1.8-4,3-7.1,3.7C31.4,41.7,32.6,39.8,33.2,38 M22.5,44.3    c-1.9-2.6-2.8-4.7-3.9-6.9c2-0.8,3.7-1.1,5.7-1.2l0,8.5C23.8,44.4,22.8,44.6,22.5,44.3 M25.9,36.1c1.9,0.1,3.7,0.4,5.7,1.2    c-1.1,2.3-2,4.3-3.9,7c-0.3,0.3-1.3,0.2-1.7,0.3L25.9,36.1z M41.6,19.3c0.3,0.7,0.5,1.4,0.8,2.1c0.2,0.3,0.4,0.7,0.6,1.2    c1.1,5.1-0.1,9.3-2.7,13.9c0-0.1,0.1-0.2,0.1-0.3c-0.6,1-1.2,1.9-1.9,2.7c-1.5-1.2-2.8-1.9-4.5-2.6c0.5-1.1,0.9-2.4,1.2-3.8    l0.3-0.1l-2.1,0c-0.2,0.9-0.4,1.9-1.1,3.2c-1.7-0.8-3.5-1.2-6.3-1.5l0-1.7l-1.7,0v1.7c-2.8,0.3-4.6,0.7-6.3,1.5    c-0.7-1.3-0.9-2.3-1.1-3.2l-2.1,0l0.3,0.1c0.2,1.4,0.6,2.6,1.2,3.8c-1.7,0.7-3,1.4-4.5,2.6c-1.9-2.2-3.4-5-4.2-8.3    c-0.2-0.4-0.4-0.8-0.5-1.2c-0.4-4-0.1-7.2,1.1-10H6.6c-0.9,2.3-1.4,4.7-1.4,7.3c0,11,9,19.9,19.9,19.9h0c11,0,19.9-9,19.9-19.9    c0-2.6-0.5-5-1.4-7.3H41.6z"/>
	</defs>
	<clipPath id="SVGID_2_">
		<use xlink:href="#SVGID_1_" style="overflow:visible;"/>
	</clipPath>
	<g class="st5">
		<defs>
			<rect id="SVGID_3_" x="5.1" y="19.2" width="40.2" height="27.5"/>
		</defs>
		<clipPath id="SVGID_4_">
			<use xlink:href="#SVGID_3_" style="overflow:visible;"/>
		</clipPath>
	</g>
</g>
<g>
	<defs>
		<path id="SVGID_5_" d="M18.5,37.3c1.1,2.3,2,4.3,3.9,6.9c0.3,0.3,1.3,0.2,1.7,0.3l0-8.5C22.3,36.2,20.5,36.5,18.5,37.3"/>
	</defs>
	<clipPath id="SVGID_6_">
		<use xlink:href="#SVGID_5_" style="overflow:visible;"/>
	</clipPath>
	<g class="st6">
		<defs>
			<rect id="SVGID_7_" x="18.4" y="35.9" width="6" height="8.8"/>
		</defs>
		<clipPath id="SVGID_8_">
			<use xlink:href="#SVGID_7_" style="overflow:visible;"/>
		</clipPath>
	</g>
</g>
<g>
	<defs>
		<path id="SVGID_9_" d="M25.9,44.5c0.4-0.1,1.4,0,1.7-0.3c1.9-2.6,2.8-4.7,3.9-7c-2-0.8-3.7-1.1-5.7-1.2L25.9,44.5z"/>
	</defs>
	<clipPath id="SVGID_10_">
		<use xlink:href="#SVGID_9_" style="overflow:visible;"/>
	</clipPath>
	<g class="st7">
		<defs>
			<rect id="SVGID_11_" x="25.8" y="35.9" width="6" height="8.8"/>
		</defs>
		<clipPath id="SVGID_12_">
			<use xlink:href="#SVGID_11_" style="overflow:visible;"/>
		</clipPath>
	</g>
</g>
<g>
	<defs>
		<path id="SVGID_13_" d="M16.8,32.5c0.2,0.9,0.4,1.9,1.1,3.2c1.7-0.8,3.5-1.2,6.3-1.5v-1.7L16.8,32.5z"/>
	</defs>
	<clipPath id="SVGID_14_">
		<use xlink:href="#SVGID_13_" style="overflow:visible;"/>
	</clipPath>
	<g class="st8">
		<defs>
			<rect id="SVGID_15_" x="16.6" y="32.2" width="7.8" height="3.7"/>
		</defs>
		<clipPath id="SVGID_16_">
			<use xlink:href="#SVGID_15_" style="overflow:visible;"/>
		</clipPath>
	</g>
</g>
<g>
	<defs>
		<path id="SVGID_17_" d="M25.9,32.4l0,1.7c2.8,0.3,4.6,0.7,6.3,1.5c0.7-1.3,0.8-2.3,1.1-3.2L25.9,32.4z"/>
	</defs>
	<clipPath id="SVGID_18_">
		<use xlink:href="#SVGID_17_" style="overflow:visible;"/>
	</clipPath>
	<g class="st9">
		<defs>
			<rect id="SVGID_19_" x="25.8" y="32.2" width="7.6" height="3.5"/>
		</defs>
		<clipPath id="SVGID_20_">
			<use xlink:href="#SVGID_19_" style="overflow:visible;"/>
		</clipPath>
	</g>
</g>
<g>
	<defs>
		<path id="SVGID_21_" d="M17.1,19.3c0,0.1-0.1,0.2-0.1,0.3l7.2,0v-0.2H17.1z"/>
	</defs>
	<clipPath id="SVGID_22_">
		<use xlink:href="#SVGID_21_" style="overflow:visible;"/>
	</clipPath>
	<g class="st10">
		<defs>
			<rect id="SVGID_23_" x="16.8" y="19.2" width="7.6" height="0.7"/>
		</defs>
		<clipPath id="SVGID_24_">
			<use xlink:href="#SVGID_23_" style="overflow:visible;"/>
		</clipPath>
		<g style="clip-path:url(#SVGID_24_);">
			
				<image style="overflow:visible;" width="20" height="2" xlink:href="50F549EAF236B248.jpg" transform="matrix(0.3792 0 0 0.3528 16.7763 19.1605)">
			</image>
		</g>
	</g>
</g>
<g>
	<defs>
		<path id="SVGID_25_" d="M25.9,19.3v0.2l7.1,0c0-0.1,0-0.1-0.1-0.2H25.9z"/>
	</defs>
	<clipPath id="SVGID_26_">
		<use xlink:href="#SVGID_25_" style="overflow:visible;"/>
	</clipPath>
	<g class="st11">
		<defs>
			<rect id="SVGID_27_" x="25.6" y="19.2" width="7.6" height="0.5"/>
		</defs>
		<clipPath id="SVGID_28_">
			<use xlink:href="#SVGID_27_" style="overflow:visible;"/>
		</clipPath>
		<g transform="matrix(1 0 0 1 -1.907349e-06 0)" style="clip-path:url(#SVGID_28_);">
			
				<image style="overflow:visible;" width="20" height="2" xlink:href="50F549EAF236B249.jpg" transform="matrix(0.3792 0 0 0.2646 25.5952 19.1606)">
			</image>
		</g>
	</g>
</g>
<g>
	<defs>
		<path id="SVGID_29_" d="M13.1,40.2c1.7,1.8,4.1,3,7.1,3.6c-1.5-2.2-2.6-4-3.3-5.9C15.6,38.5,14.5,39.2,13.1,40.2"/>
	</defs>
	<clipPath id="SVGID_30_">
		<use xlink:href="#SVGID_29_" style="overflow:visible;"/>
	</clipPath>
	<g class="st12">
		<defs>
			<rect id="SVGID_31_" x="12.9" y="37.9" width="7.4" height="6.2"/>
		</defs>
		<clipPath id="SVGID_32_">
			<use xlink:href="#SVGID_31_" style="overflow:visible;"/>
		</clipPath>
	</g>
</g>
<g>
	<defs>
		<path id="SVGID_33_" d="M30,43.8c3-0.7,5.4-1.9,7.1-3.7c-1.4-1-2.6-1.7-3.8-2.2C32.6,39.8,31.4,41.7,30,43.8"/>
	</defs>
	<clipPath id="SVGID_34_">
		<use xlink:href="#SVGID_33_" style="overflow:visible;"/>
	</clipPath>
	<g class="st13">
		<defs>
			<rect id="SVGID_35_" x="29.8" y="37.9" width="7.4" height="6.2"/>
		</defs>
		<clipPath id="SVGID_36_">
			<use xlink:href="#SVGID_35_" style="overflow:visible;"/>
		</clipPath>
	</g>
</g>
<g>
	<defs>
		<path id="SVGID_37_" d="M11.7,38.9c1.5-1.2,2.8-1.9,4.5-2.6c-0.6-1.1-0.9-2.4-1.2-3.8l-0.3-0.1l-3.2,0c-0.1,0-0.2,0-0.3,0    c-2.1,0-3.1-0.8-3.8-1.9C8.3,33.9,9.7,36.6,11.7,38.9"/>
	</defs>
	<clipPath id="SVGID_38_">
		<use xlink:href="#SVGID_37_" style="overflow:visible;"/>
	</clipPath>
	<g class="st14">
		<defs>
			<rect id="SVGID_39_" x="7.3" y="30.4" width="9" height="8.6"/>
		</defs>
		<clipPath id="SVGID_40_">
			<use xlink:href="#SVGID_39_" style="overflow:visible;"/>
		</clipPath>
	</g>
</g>
<g>
	<defs>
		<path id="SVGID_41_" d="M35.4,32.4l-0.3,0.1c-0.2,1.4-0.6,2.6-1.2,3.8c1.7,0.7,3,1.4,4.5,2.6c0.7-0.8,1.3-1.7,1.9-2.7    c0.7-2.2-0.6-3.7-2-3.7L35.4,32.4z"/>
	</defs>
	<clipPath id="SVGID_42_">
		<use xlink:href="#SVGID_41_" style="overflow:visible;"/>
	</clipPath>
	<g class="st15">
		<defs>
			<rect id="SVGID_43_" x="33.7" y="32.2" width="7.4" height="6.9"/>
		</defs>
		<clipPath id="SVGID_44_">
			<use xlink:href="#SVGID_43_" style="overflow:visible;"/>
		</clipPath>
	</g>
</g>
<g>
	<defs>
		<path id="SVGID_45_" d="M11.8,19.3c0.4,0.2,0.9,0.3,1.4,0.3c0,0,0.1,0,0.1,0l1.8,0c0-0.1,0-0.2,0.1-0.3H11.8z"/>
	</defs>
	<clipPath id="SVGID_46_">
		<use xlink:href="#SVGID_45_" style="overflow:visible;"/>
	</clipPath>
	<g class="st16">
		<defs>
			<rect id="SVGID_47_" x="11.7" y="19.2" width="3.7" height="0.7"/>
		</defs>
		<clipPath id="SVGID_48_">
			<use xlink:href="#SVGID_47_" style="overflow:visible;"/>
		</clipPath>
		<g style="clip-path:url(#SVGID_48_);">
			
				<image style="overflow:visible;" width="10" height="2" xlink:href="50F549EAF236B24F.jpg" transform="matrix(0.3704 0 0 0.3528 11.6613 19.1605)">
			</image>
		</g>
	</g>
</g>
<g>
	<defs>
		<path id="SVGID_49_" d="M34.9,19.3c0,0.1,0,0.1,0,0.2l3.7,0c1.8,0.2,2.9,0.8,3.7,1.9c-0.2-0.7-0.5-1.4-0.8-2.1H34.9z"/>
	</defs>
	<clipPath id="SVGID_50_">
		<use xlink:href="#SVGID_49_" style="overflow:visible;"/>
	</clipPath>
	<g class="st17">
		<defs>
			<rect id="SVGID_51_" x="34.8" y="19.2" width="7.8" height="2.5"/>
		</defs>
		<clipPath id="SVGID_52_">
			<use xlink:href="#SVGID_51_" style="overflow:visible;"/>
		</clipPath>
		<g style="clip-path:url(#SVGID_52_);">
			
				<image style="overflow:visible;" width="44" height="14" xlink:href="50F549EAF236B24A.jpg" transform="matrix(0.1764 0 0 0.1764 34.7669 19.1605)">
			</image>
		</g>
	</g>
</g>
<g>
	<defs>
		<path id="SVGID_53_" d="M8,19.3c-1.2,2.8-1.5,6.1-1.1,10c0.2,0.4,0.3,0.8,0.5,1.2c0.6,1.1,1.6,1.9,3.8,1.9c0.1,0,0.2,0,0.3,0    l3.2,0l2.1,0l7.4,0l1.7,0l7.4,0l2.1,0l2.9,0c1.4,0,2.7,1.5,2,3.7c0,0.1-0.1,0.2-0.1,0.3c2.6-4.6,3.8-8.8,2.7-13.9    c-0.2-0.4-0.4-0.8-0.6-1.2c-0.8-1.2-1.8-1.7-3.7-1.9l-3.7,0l-1.9,0l-7.1,0l-1.7,0l-7.2,0l-1.9,0l-1.8,0c0,0-0.1,0-0.1,0    c-0.5,0-1-0.1-1.4-0.3H8z"/>
	</defs>
	<clipPath id="SVGID_54_">
		<use xlink:href="#SVGID_53_" style="overflow:visible;"/>
	</clipPath>
	<g class="st18">
		<defs>
			<rect id="SVGID_55_" x="6.4" y="19.2" width="37.9" height="17.5"/>
		</defs>
		<clipPath id="SVGID_56_">
			<use xlink:href="#SVGID_55_" style="overflow:visible;"/>
		</clipPath>
	</g>
</g>
</svg>