<svg id="Group_234" data-name="Group 234" xmlns="http://www.w3.org/2000/svg" width="31.023" height="35.803" viewBox="0 0 31.023 35.803">
	<g id="Group_229" data-name="Group 229" transform="translate(4.552 0)">
		<path id="Path_155" data-name="Path 155" d="M23.351,10.18v7.734c-.231.288-.745.763-1.116.763-.407,0-.5-.276-.5-.684V10.178h-1.9V18.7c0,1,.308,1.818,1.323,1.818a3,3,0,0,0,2.192-1.273v1.126h1.893V10.18Z" transform="translate(-5.67 -6.553)" fill="#f70b0b"/>
		<path id="Path_156" data-name="Path 156" d="M18.645,10.132a2.608,2.608,0,0,0-2.778,2.738v4.993a2.45,2.45,0,0,0,2.778,2.731,2.594,2.594,0,0,0,2.722-2.731V12.87A2.658,2.658,0,0,0,18.645,10.132Zm.792,7.645c0,.557-.281.965-.792.965a.86.86,0,0,1-.827-.965v-4.74c0-.559.258-.971.79-.971.582,0,.829.4.829.971Z" transform="translate(-8.809 -6.59)" fill="#f70b0b"/>
		<path id="Path_157" data-name="Path 157" d="M16.913,8.154l-1.368,5.521L14.073,8.154H11.926l2.538,8.211V21.97H16.6V16.365L19.08,8.154Z" transform="translate(-11.926 -8.154)" fill="#f70b0b"/>
	</g>

	<g id="Group_233" data-name="Group 233" transform="translate(0 16.135)">
		<g id="Group_230" data-name="Group 230">
			<path id="Path_158" data-name="Path 158" d="M37.549,28.953H34.1v1.83c0,.727.061,1.357.788,1.357.763,0,.806-.512.806-1.357v-.673h1.857v.729c0,1.87-.8,3-2.7,3-1.725,0-2.606-1.255-2.606-3V26.483a2.668,2.668,0,0,1,2.74-2.856c1.734,0,2.57,1.1,2.57,2.856v2.469ZM30.88,31.567c0,1.2-.45,2.133-1.649,2.133a2.068,2.068,0,0,1-1.716-.869v.747H25.693V20.42h1.821v4.235a2.164,2.164,0,0,1,1.6-.906c1.322,0,1.759,1.116,1.759,2.432v5.387Zm-6.947,2.011h-1.8V32.507a3.993,3.993,0,0,1-1.039.9c-.972.557-2.308.546-2.308-1.424V23.872h1.805v7.439c0,.39.095.654.48.654.351,0,.842-.451,1.062-.725V23.872h1.8Zm-7.228,0H14.674V22.33h-2.1V20.421h6.238V22.33H16.7ZM36.062,17.164H13.729A4.346,4.346,0,0,0,9.384,21.51V32.486a4.345,4.345,0,0,0,4.345,4.346H36.062a4.345,4.345,0,0,0,4.345-4.346V21.51a4.346,4.346,0,0,0-4.345-4.346" transform="translate(-9.384 -17.164)" fill="#f70b0b"/>
		</g>
		<g id="Group_231" data-name="Group 231" transform="translate(24.715 8.162)">
			<path id="Path_159" data-name="Path 159" d="M23.991,21.722c-.668,0-.806.473-.806,1.139v.981h1.594v-.981c0-.659-.141-1.139-.788-1.139" transform="translate(-23.185 -21.722)" fill="#f70b0b"/>
		</g>
		<g id="Group_232" data-name="Group 232" transform="translate(18.131 8.126)">
			<path id="Path_160" data-name="Path 160" d="M19.882,21.8a1.333,1.333,0,0,0-.374.294v6.049a1.494,1.494,0,0,0,.43.34.764.764,0,0,0,.921-.1,1.109,1.109,0,0,0,.159-.67V22.7a1.225,1.225,0,0,0-.193-.745.75.75,0,0,0-.942-.158" transform="translate(-19.508 -21.702)" fill="#f70b0b"/>
		</g>
	</g>
</svg>
