<svg id="Group_442" data-name="Group 442" xmlns="http://www.w3.org/2000/svg" width="125.5" height="13.778" viewBox="0 0 125.5 13.778">
  <path id="Path_266" data-name="Path 266" d="M23.851,124.53l1.441-1.805a3.54,3.54,0,0,0,2.6,1.408c.861,0,1.623-.364,1.623-1.226,0-.712-.6-1.176-1.805-1.176H26.65v-2.484h.994c.812,0,1.424-.381,1.424-1.06,0-.711-.5-1.076-1.275-1.076a2.481,2.481,0,0,0-2.054,1.208l-1.524-1.789a4.8,4.8,0,0,1,3.925-1.9c2.136,0,3.576,1.192,3.576,3.263a2.872,2.872,0,0,1-1.456,2.467v.051a2.593,2.593,0,0,1,1.9,2.764,3,3,0,0,1-1.258,2.5,4.718,4.718,0,0,1-2.9.944A4.634,4.634,0,0,1,23.851,124.53Z" transform="translate(-23.851 -114.627)" fill="#f70b0b"/>
  <path id="Path_267" data-name="Path 267" d="M34.935,126.422V114.831H37.6l3.576,4.885,3.379-4.885h2.5v11.591h-2.65v-7.385l-3.229,4.521H40.8l-3.213-4.472v7.336Z" transform="translate(-24.137 -114.632)" fill="#f70b0b"/>
  <path id="Path_268" data-name="Path 268" d="M50.609,126.422V114.831h2.666l3.576,4.885,3.379-4.885h2.5v11.591h-2.65v-7.385l-3.229,4.521h-.381l-3.212-4.472v7.336Z" transform="translate(-24.541 -114.632)" fill="#f70b0b"/>
  <path id="Path_269" data-name="Path 269" d="M74.58,126.42v-3.725H73.4l-2.2,3.725H68.238l2.715-4.305a3.448,3.448,0,0,1-1.788-3.162,4.022,4.022,0,0,1,1.226-3,5.2,5.2,0,0,1,3.758-1.191c.248,0,.762.016,1.557.033s1.308.033,1.524.033V126.42Zm0-6.21v-2.9a4.714,4.714,0,0,0-.961-.066,1.528,1.528,0,0,0-1.639,1.523,1.422,1.422,0,0,0,1.208,1.441Z" transform="translate(-24.996 -114.63)" fill="#f70b0b"/>
  <path id="Path_270" data-name="Path 270" d="M80.7,126.422V114.831h2.65v5.051l3.792-5.051h3.18l-4.356,5.348,4.7,6.243H87.305l-3.957-5.514v5.514Z" transform="translate(-25.317 -114.632)" fill="#f70b0b"/>
  <path id="Path_271" data-name="Path 271" d="M93.488,116.349a6.041,6.041,0,0,1,4.454-1.722,6.131,6.131,0,0,1,4.422,1.64,6.236,6.236,0,0,1-.017,8.66,6.072,6.072,0,0,1-4.405,1.69,6.2,6.2,0,0,1-4.437-1.64,6.284,6.284,0,0,1-.018-8.628Zm2.088,6.773a3.436,3.436,0,0,0,4.835.033,3.717,3.717,0,0,0,.877-2.534,3.417,3.417,0,0,0-.96-2.533,3.251,3.251,0,0,0-2.386-.977,3.207,3.207,0,0,0-2.4.977,3.776,3.776,0,0,0,.034,5.034Z" transform="translate(-25.603 -114.627)" fill="#f70b0b"/>
  <path id="Path_272" data-name="Path 272" d="M109.459,126.421H106.81V114.83c.2,0,.762,0,1.673-.017.926-.017,1.557-.017,1.87-.017a4.97,4.97,0,0,1,3.577,1.093,3.639,3.639,0,0,1,1.11,2.748,3.744,3.744,0,0,1-1.176,2.766,4.326,4.326,0,0,1-3.114,1.126,12.15,12.15,0,0,1-1.292-.05Zm0-9.107v2.65a10.589,10.589,0,0,0,1.209.082,1.375,1.375,0,0,0,1.558-1.423c0-.894-.531-1.341-1.606-1.341C110.569,117.281,110.188,117.3,109.459,117.314Z" transform="translate(-25.991 -114.631)" fill="#f70b0b"/>
  <path id="Path_273" data-name="Path 273" d="M126.876,114.831l-3.891,8.843c-.812,1.854-1.856,2.748-3.4,2.748a3.282,3.282,0,0,1-1.755-.513l.927-2.251a1.5,1.5,0,0,0,.812.282.849.849,0,0,0,.86-.464l.15-.348-4.984-8.3h3l3.262,5.664,2.352-5.664Z" transform="translate(-26.218 -114.632)" fill="#f70b0b"/>
  <path id="Path_274" data-name="Path 274" d="M126.853,128.41v-4.472H128.1a8.1,8.1,0,0,0,1.01-2.435,18.694,18.694,0,0,0,.662-4.355l.1-2.319h7.568v9.108h1.573v4.472h-2.484v-1.988h-7.188v1.988Zm5.4-9.141a15.576,15.576,0,0,1-.529,2.848,6.189,6.189,0,0,1-.713,1.822h3.776v-6.624h-2.351Z" transform="translate(-26.508 -114.632)" fill="#f70b0b"/>
  <path id="Path_275" data-name="Path 275" d="M140.351,126.422l4.818-11.591h2.368l4.818,11.591h-2.831l-.962-2.435h-4.587l-.96,2.435Zm5.927-8.2-1.306,3.279h2.6Z" transform="translate(-26.856 -114.632)" fill="#f70b0b"/>
</svg>
