<svg xmlns="http://www.w3.org/2000/svg" width="107.165" height="80.373" viewBox="0 0 107.165 80.373">
  <g id="Group_241" data-name="Group 241" transform="translate(-23 -31.271)">
    <path id="Path_161" data-name="Path 161" d="M111.105,90.608h19.06L107.51,31.271h-5.754l-11.148,29.2L79.46,31.271H73.706l-11.148,29.2L51.41,31.271H45.656L23,90.608H42.06V85.933H30.912L48.173,40.261h.72L59.528,68.4l-8.478,22.2H74.066L65.587,68.4,76.222,40.261h.72L87.579,68.4,79.1,90.608h23.015L93.637,68.4l10.636-28.141h.72l17.262,45.671H111.105ZM66.154,85.933H58.961l3.6-9.515Zm28.05,0H87.011l3.6-9.515Z" fill="#f70b0b"/>
    <g id="Group_240" data-name="Group 240" transform="translate(23.702 99.985)">
      <path id="Path_162" data-name="Path 162" d="M23.851,123.006l1.219-1.528a3,3,0,0,0,2.2,1.191c.729,0,1.373-.308,1.373-1.037,0-.6-.5-.995-1.528-.995h-.9v-2.1h.841c.687,0,1.205-.322,1.205-.9,0-.6-.42-.91-1.079-.91a2.1,2.1,0,0,0-1.738,1.022l-1.289-1.513a4.059,4.059,0,0,1,3.321-1.611c1.808,0,3.026,1.009,3.026,2.761a2.43,2.43,0,0,1-1.232,2.087v.043a2.195,2.195,0,0,1,1.611,2.339,2.537,2.537,0,0,1-1.064,2.117,3.992,3.992,0,0,1-2.452.8A3.921,3.921,0,0,1,23.851,123.006Z" transform="translate(-23.851 -114.627)" fill="#f70b0b"/>
      <path id="Path_163" data-name="Path 163" d="M34.935,124.639v-9.808h2.256l3.026,4.133,2.859-4.133h2.116v9.808H42.95V118.39l-2.733,3.826H39.9l-2.719-3.784v6.207Z" transform="translate(-25.798 -114.663)" fill="#f70b0b"/>
      <path id="Path_164" data-name="Path 164" d="M50.609,124.639v-9.808h2.256l3.026,4.133,2.859-4.133h2.116v9.808H58.624V118.39l-2.733,3.826h-.322l-2.718-3.784v6.207Z" transform="translate(-28.551 -114.663)" fill="#f70b0b"/>
      <path id="Path_165" data-name="Path 165" d="M73.6,124.627v-3.152H72.61l-1.863,3.152H68.238l2.3-3.643a2.918,2.918,0,0,1-1.513-2.676,3.4,3.4,0,0,1,1.037-2.537,4.4,4.4,0,0,1,3.18-1.008c.21,0,.645.013,1.317.028s1.107.028,1.289.028v9.808Zm0-5.254v-2.452a3.989,3.989,0,0,0-.813-.056,1.293,1.293,0,0,0-1.387,1.288,1.2,1.2,0,0,0,1.022,1.219Z" transform="translate(-31.648 -114.651)" fill="#f70b0b"/>
      <path id="Path_166" data-name="Path 166" d="M80.7,124.639v-9.808H82.94v4.274l3.208-4.274h2.691l-3.686,4.526,3.981,5.282H86.289l-3.349-4.666v4.666Z" transform="translate(-33.836 -114.663)" fill="#f70b0b"/>
      <path id="Path_167" data-name="Path 167" d="M93.225,116.084a5.111,5.111,0,0,1,3.769-1.457,5.188,5.188,0,0,1,3.742,1.387,5.277,5.277,0,0,1-.014,7.328,5.138,5.138,0,0,1-3.728,1.43,5.247,5.247,0,0,1-3.754-1.387,5.317,5.317,0,0,1-.015-7.3Zm1.767,5.731a2.908,2.908,0,0,0,4.091.028,3.145,3.145,0,0,0,.742-2.144,2.891,2.891,0,0,0-.812-2.143,2.751,2.751,0,0,0-2.019-.827,2.713,2.713,0,0,0-2.031.827,3.2,3.2,0,0,0,.029,4.259Z" transform="translate(-35.783 -114.627)" fill="#f70b0b"/>
      <path id="Path_168" data-name="Path 168" d="M109.051,124.633H106.81v-9.808c.168,0,.645,0,1.415-.014s1.317-.014,1.583-.014a4.206,4.206,0,0,1,3.027.925,3.079,3.079,0,0,1,.939,2.325,3.168,3.168,0,0,1-.995,2.34,3.661,3.661,0,0,1-2.635.953,10.284,10.284,0,0,1-1.093-.042Zm0-7.706v2.242a8.962,8.962,0,0,0,1.023.069,1.163,1.163,0,0,0,1.318-1.2c0-.757-.449-1.135-1.359-1.135C109.991,116.9,109.668,116.912,109.051,116.927Z" transform="translate(-38.423 -114.657)" fill="#f70b0b"/>
      <path id="Path_169" data-name="Path 169" d="M125.142,114.831l-3.292,7.483c-.687,1.569-1.57,2.325-2.874,2.325a2.777,2.777,0,0,1-1.485-.434l.785-1.905a1.268,1.268,0,0,0,.687.238.719.719,0,0,0,.728-.392l.127-.294-4.217-7.02h2.536l2.76,4.793,1.99-4.793Z" transform="translate(-39.967 -114.663)" fill="#f70b0b"/>
      <path id="Path_170" data-name="Path 170" d="M126.853,126.322v-3.784H127.9a6.852,6.852,0,0,0,.855-2.06,15.818,15.818,0,0,0,.561-3.685l.084-1.962h6.4v7.707h1.331v3.784h-2.1v-1.683h-6.082v1.683Zm4.568-7.735a13.178,13.178,0,0,1-.448,2.41,5.237,5.237,0,0,1-.6,1.542h3.2v-5.6h-1.989Z" transform="translate(-41.944 -114.663)" fill="#f70b0b"/>
      <path id="Path_171" data-name="Path 171" d="M140.351,124.639l4.077-9.808h2l4.077,9.808h-2.4l-.814-2.06h-3.881l-.812,2.06Zm5.015-6.936-1.105,2.775h2.2Z" transform="translate(-44.315 -114.663)" fill="#f70b0b"/>
    </g>
  </g>
</svg>
