<svg version="1.2" baseProfile="tiny-ps" xmlns="http://www.w3.org/2000/svg" viewBox="0 0 107 79" width="107" height="79">
	<title>Group_241</title>
	<style>
		tspan { white-space:pre }
		.shp0 { fill: #f70b0b } 
	</style>
	<g id="Group_241">
		<path id="Path_161" fill-rule="evenodd" class="shp0" d="M88.1 54.66L99.25 54.66L81.99 8.99L81.27 8.99L70.64 37.13L79.11 59.34L56.1 59.34L64.58 37.13L53.94 8.99L53.22 8.99L42.59 37.13L51.07 59.33L28.05 59.33L36.53 37.13L25.89 8.99L25.17 8.99L7.91 54.66L19.06 54.66L19.06 59.34L0 59.34L22.66 0L28.41 0L39.56 29.2L50.71 0L56.46 0L67.61 29.2L78.76 0L84.51 0L107.16 59.34L88.1 59.34L88.1 54.66ZM39.56 45.15L35.96 54.66L43.15 54.66L39.56 45.15ZM67.61 45.15L64.01 54.66L71.2 54.66L67.61 45.15Z" />
		<g id="Group_240">
			<path id="Path_162" class="shp0" d="M37.7 77.09L38.92 75.56C39.05 75.74 39.2 75.89 39.36 76.04C39.52 76.18 39.7 76.3 39.89 76.4C40.08 76.5 40.28 76.59 40.49 76.64C40.69 76.7 40.91 76.74 41.12 76.76C41.85 76.76 42.49 76.45 42.49 75.72C42.49 75.12 41.99 74.72 40.97 74.72L40.07 74.72L40.07 72.62L40.91 72.62C41.59 72.62 42.11 72.3 42.11 71.72C42.11 71.12 41.69 70.81 41.03 70.81C40.86 70.82 40.68 70.85 40.51 70.9C40.35 70.94 40.18 71.01 40.03 71.1C39.88 71.19 39.74 71.3 39.62 71.42C39.49 71.55 39.38 71.69 39.29 71.84L38.01 70.32C38.2 70.07 38.42 69.84 38.67 69.63C38.92 69.43 39.19 69.26 39.47 69.12C39.76 68.98 40.06 68.87 40.38 68.81C40.69 68.74 41.01 68.71 41.33 68.71C43.13 68.71 44.35 69.72 44.35 71.47C44.35 71.68 44.32 71.9 44.26 72.1C44.21 72.3 44.12 72.5 44.02 72.68C43.91 72.86 43.78 73.03 43.63 73.18C43.48 73.33 43.31 73.46 43.12 73.56L43.12 73.6C43.37 73.67 43.61 73.78 43.82 73.93C44.03 74.08 44.21 74.26 44.36 74.48C44.5 74.69 44.61 74.93 44.67 75.18C44.74 75.43 44.76 75.69 44.73 75.94C44.74 76.15 44.72 76.35 44.67 76.55C44.62 76.75 44.55 76.95 44.46 77.13C44.37 77.32 44.26 77.49 44.12 77.64C43.99 77.8 43.84 77.94 43.67 78.06C43.49 78.19 43.31 78.31 43.11 78.41C42.92 78.51 42.72 78.59 42.51 78.66C42.3 78.73 42.09 78.78 41.87 78.81C41.65 78.85 41.43 78.86 41.22 78.86C40.87 78.88 40.53 78.85 40.19 78.79C39.85 78.72 39.53 78.6 39.22 78.45C38.91 78.29 38.63 78.1 38.37 77.87C38.12 77.64 37.89 77.38 37.7 77.09Z" />
			<path id="Path_163" class="shp0" d="M46.84 78.69L46.84 68.88L49.09 68.88L52.12 73.01L54.98 68.88L57.1 68.88L57.1 78.69L54.85 78.69L54.85 72.44L52.12 76.27L51.8 76.27L49.08 72.48L49.08 78.69L46.84 78.69Z" />
			<path id="Path_164" class="shp0" d="M59.76 78.69L59.76 68.88L62.02 68.88L65.04 73.01L67.9 68.88L70.02 68.88L70.02 78.69L67.77 78.69L67.77 72.44L65.04 76.27L64.72 76.27L62 72.48L62 78.69L59.76 78.69Z" />
		</g>
	</g>
</svg>