<svg version="1.2" baseProfile="tiny-ps" xmlns="http://www.w3.org/2000/svg" viewBox="0 0 39 12" width="39" height="12">
	<title>Path_268</title>
	<style>
		tspan { white-space:pre }
		.shp0 { fill: #f70b0b } 
	</style>
	<path id="Path_266" class="shp0" d="M0 9.9L1.44 8.1C1.59 8.3 1.77 8.49 1.96 8.65C2.15 8.82 2.36 8.97 2.59 9.09C2.81 9.21 3.05 9.3 3.29 9.37C3.54 9.45 3.79 9.49 4.04 9.51C4.9 9.51 5.66 9.14 5.66 8.28C5.66 7.57 5.06 7.1 3.86 7.1L2.8 7.1L2.8 4.62L3.79 4.62C4.6 4.62 5.22 4.24 5.22 3.56C5.22 2.85 4.72 2.48 3.94 2.48C3.73 2.49 3.53 2.52 3.33 2.58C3.13 2.64 2.94 2.72 2.76 2.83C2.58 2.93 2.42 3.06 2.27 3.2C2.12 3.35 1.99 3.51 1.89 3.69L0.36 1.9C0.59 1.6 0.85 1.33 1.15 1.09C1.44 0.85 1.76 0.65 2.1 0.48C2.44 0.32 2.8 0.19 3.17 0.11C3.53 0.03 3.91 0 4.29 0C6.42 0 7.86 1.19 7.86 3.27C7.86 3.52 7.83 3.77 7.76 4.01C7.69 4.25 7.59 4.48 7.47 4.69C7.34 4.91 7.18 5.11 7.01 5.28C6.83 5.46 6.63 5.61 6.41 5.73L6.41 5.78C6.7 5.86 6.98 5.99 7.23 6.17C7.48 6.35 7.69 6.57 7.87 6.82C8.04 7.07 8.17 7.35 8.24 7.64C8.32 7.94 8.34 8.24 8.31 8.55C8.31 8.79 8.29 9.03 8.23 9.27C8.18 9.51 8.1 9.74 7.99 9.95C7.88 10.17 7.75 10.37 7.59 10.56C7.43 10.74 7.25 10.91 7.05 11.05C6.84 11.2 6.62 11.34 6.39 11.46C6.16 11.58 5.93 11.68 5.68 11.76C5.43 11.84 5.18 11.9 4.92 11.94C4.67 11.98 4.41 12 4.15 11.99C3.75 12.02 3.34 11.99 2.94 11.9C2.54 11.82 2.16 11.69 1.79 11.51C1.43 11.32 1.09 11.09 0.79 10.82C0.49 10.55 0.22 10.24 0 9.9L0 9.9Z" />
	<path id="Path_267" class="shp0" d="M10.8 11.79L10.8 0.2L13.46 0.2L17.04 5.08L20.42 0.2L22.92 0.2L22.92 11.79L20.27 11.79L20.27 4.4L17.04 8.93L16.66 8.93L13.45 4.45L13.45 11.79L10.8 11.79Z" />
	<path id="Path_268" class="shp0" d="M26.07 11.79L26.07 0.2L28.73 0.2L32.31 5.08L35.69 0.2L38.19 0.2L38.19 11.79L35.54 11.79L35.54 4.4L32.31 8.93L31.93 8.93L28.72 4.45L28.72 11.79L26.07 11.79Z" />
</svg>